<svg width="430" height="932" viewBox="0 0 430 932" fill="none" xmlns="http://www.w3.org/2000/svg">
<g clip-path="url(#clip0_1517_2275)">
<rect width="430" height="932" fill="black"/>
<path d="M246.266 445.189C96.3999 374.631 -31.1358 424.789 -85.8999 475.191L-128 9.08008L548.247 -52L587.198 379.244C452.575 450.644 343.773 491.095 246.266 445.189Z" fill="#A923D8"/>
<path d="M121.91 221L123.73 196.57H128.595L131.71 211.025L132.445 215.785L133.215 211.025L136.26 196.57H141.055L142.91 221H139.235L138.43 205.705L138.29 200.315L137.24 205.705L133.915 221H130.765L127.475 205.705L126.495 200.245L126.285 205.705L125.515 221H121.91ZM153.284 221V196.57H156.994V221H153.284ZM147.159 196.57H163.084V199.72H147.159V196.57ZM147.159 217.85H163.084V221H147.159V217.85ZM168.872 221V196.57H173.492L183.677 216.17L183.397 208.61V196.57H186.967V221H182.382L172.127 201.61L172.442 208.925V221H168.872ZM198.811 221V196.57H202.521V221H198.811ZM192.686 196.57H208.611V199.72H192.686V196.57ZM192.686 217.85H208.611V221H192.686V217.85ZM212.965 221L214.785 196.57H219.65L222.765 211.025L223.5 215.785L224.27 211.025L227.315 196.57H232.11L233.965 221H230.29L229.485 205.705L229.345 200.315L228.295 205.705L224.97 221H221.82L218.53 205.705L217.55 200.245L217.34 205.705L216.57 221H212.965ZM239.613 214.84V211.69H253.158V214.84H239.613ZM243.533 196.57H248.853L256.413 221H252.598L247.663 204.83L246.193 199.475L244.723 204.865L239.718 221H235.973L243.533 196.57ZM261.432 221V196.57H265.142V217.85H277.952V221H261.432ZM289.866 221V196.57H293.576V221H289.866ZM283.741 196.57H299.666V199.72H283.741V196.57ZM283.741 217.85H299.666V221H283.741V217.85ZM314.834 221.42C312.944 221.42 311.299 221.058 309.899 220.335C308.499 219.612 307.414 218.573 306.644 217.22C305.874 215.867 305.489 214.222 305.489 212.285H309.164C309.164 214.198 309.666 215.68 310.669 216.73C311.673 217.757 313.049 218.27 314.799 218.27C316.293 218.27 317.494 217.932 318.404 217.255C319.314 216.555 319.769 215.587 319.769 214.35C319.769 213.51 319.513 212.833 318.999 212.32C318.509 211.807 317.844 211.387 317.004 211.06C316.188 210.733 315.289 210.442 314.309 210.185C313.329 209.928 312.338 209.648 311.334 209.345C310.354 209.018 309.444 208.61 308.604 208.12C307.788 207.63 307.123 206.977 306.609 206.16C306.119 205.343 305.874 204.305 305.874 203.045C305.874 201.715 306.224 200.537 306.924 199.51C307.648 198.46 308.639 197.643 309.899 197.06C311.183 196.453 312.688 196.15 314.414 196.15C316.094 196.15 317.599 196.465 318.929 197.095C320.259 197.702 321.321 198.577 322.114 199.72C322.931 200.84 323.351 202.193 323.374 203.78H319.664C319.641 202.847 319.384 202.053 318.894 201.4C318.428 200.723 317.798 200.21 317.004 199.86C316.234 199.487 315.371 199.3 314.414 199.3C313.038 199.3 311.918 199.627 311.054 200.28C310.191 200.933 309.759 201.82 309.759 202.94C309.759 203.733 310.004 204.363 310.494 204.83C311.008 205.297 311.673 205.682 312.489 205.985C313.329 206.265 314.239 206.533 315.219 206.79C316.223 207.023 317.214 207.303 318.194 207.63C319.174 207.933 320.073 208.353 320.889 208.89C321.729 209.403 322.394 210.103 322.884 210.99C323.398 211.853 323.654 212.962 323.654 214.315C323.654 215.762 323.269 217.022 322.499 218.095C321.729 219.145 320.679 219.962 319.349 220.545C318.019 221.128 316.514 221.42 314.834 221.42ZM335.393 221V199.72H327.518V196.57H346.978V199.72H339.103V221H335.393ZM358.157 221V196.57H361.867V221H358.157ZM352.032 196.57H367.957V199.72H352.032V196.57ZM352.032 217.85H367.957V221H352.032V217.85ZM383.195 221.42C381.049 221.42 379.182 220.883 377.595 219.81C376.032 218.713 374.819 217.22 373.955 215.33C373.115 213.417 372.695 211.223 372.695 208.75C372.695 206.183 373.139 203.955 374.025 202.065C374.912 200.175 376.149 198.717 377.735 197.69C379.345 196.663 381.212 196.15 383.335 196.15C385.039 196.15 386.579 196.488 387.955 197.165C389.355 197.818 390.487 198.775 391.35 200.035C392.237 201.272 392.75 202.753 392.89 204.48H388.83C388.644 202.917 388.06 201.668 387.08 200.735C386.1 199.778 384.84 199.3 383.3 199.3C381.97 199.3 380.792 199.685 379.765 200.455C378.762 201.202 377.98 202.287 377.42 203.71C376.86 205.133 376.58 206.825 376.58 208.785C376.58 210.745 376.86 212.437 377.42 213.86C378.004 215.283 378.797 216.38 379.8 217.15C380.804 217.897 381.935 218.27 383.195 218.27C384.292 218.27 385.249 218.048 386.065 217.605C386.882 217.138 387.535 216.497 388.025 215.68C388.539 214.863 388.842 213.907 388.935 212.81H393.03C392.867 214.537 392.365 216.053 391.525 217.36C390.685 218.643 389.554 219.647 388.13 220.37C386.73 221.07 385.085 221.42 383.195 221.42ZM123.345 281V256.57H127.965L138.15 276.17L137.87 268.61V256.57H141.44V281H136.855L126.6 261.61L126.915 268.925V281H123.345ZM155.174 281.42C153.097 281.42 151.289 280.907 149.749 279.88C148.209 278.83 147.007 277.36 146.144 275.47C145.304 273.58 144.884 271.352 144.884 268.785C144.884 266.195 145.304 263.955 146.144 262.065C147.007 260.175 148.209 258.717 149.749 257.69C151.289 256.663 153.097 256.15 155.174 256.15C157.25 256.15 159.059 256.663 160.599 257.69C162.139 258.717 163.329 260.175 164.169 262.065C165.032 263.955 165.464 266.195 165.464 268.785C165.464 271.352 165.032 273.58 164.169 275.47C163.329 277.36 162.139 278.83 160.599 279.88C159.059 280.907 157.25 281.42 155.174 281.42ZM155.174 278.27C156.457 278.27 157.577 277.885 158.534 277.115C159.49 276.345 160.237 275.248 160.774 273.825C161.31 272.402 161.579 270.722 161.579 268.785C161.579 266.825 161.31 265.145 160.774 263.745C160.237 262.322 159.49 261.225 158.534 260.455C157.577 259.685 156.457 259.3 155.174 259.3C153.914 259.3 152.794 259.685 151.814 260.455C150.857 261.225 150.11 262.322 149.574 263.745C149.037 265.168 148.769 266.848 148.769 268.785C148.769 270.722 149.037 272.402 149.574 273.825C150.11 275.248 150.857 276.345 151.814 277.115C152.794 277.885 153.914 278.27 155.174 278.27ZM176.047 281V259.72H168.172V256.57H187.632V259.72H179.757V281H176.047ZM192.196 281V256.57H209.731V259.72H195.906V266.755H205.426V269.905H195.906V277.85H209.871V281H192.196ZM244.338 281V259.72H236.463V256.57H255.923V259.72H248.048V281H244.338ZM262.377 274.84V271.69H275.922V274.84H262.377ZM266.297 256.57H271.617L279.177 281H275.362L270.427 264.83L268.957 259.475L267.487 264.865L262.482 281H258.737L266.297 256.57ZM283.111 281V256.57H286.821V262.87L286.576 267.56L290.076 263.57L296.691 256.57H301.311L286.821 272.32V281H283.111ZM297.706 281L288.641 267.315L291.756 265.39L302.151 281H297.706ZM312.629 281V256.57H316.339V281H312.629ZM306.504 256.57H322.429V259.72H306.504V256.57ZM306.504 277.85H322.429V281H306.504V277.85ZM328.218 281V256.57H332.838L343.023 276.17L342.743 268.61V256.57H346.313V281H341.728L331.473 261.61L331.788 268.925V281H328.218ZM360.502 281.42C358.332 281.42 356.442 280.895 354.832 279.845C353.222 278.795 351.962 277.325 351.052 275.435C350.165 273.545 349.722 271.328 349.722 268.785C349.722 266.265 350.177 264.06 351.087 262.17C351.997 260.28 353.268 258.81 354.902 257.76C356.535 256.687 358.437 256.15 360.607 256.15C362.287 256.15 363.792 256.477 365.122 257.13C366.475 257.783 367.572 258.728 368.412 259.965C369.252 261.202 369.742 262.695 369.882 264.445H365.787C365.6 262.882 365.04 261.633 364.107 260.7C363.197 259.767 362.007 259.3 360.537 259.3C359.23 259.3 358.052 259.685 357.002 260.455C355.975 261.202 355.158 262.287 354.552 263.71C353.945 265.11 353.642 266.802 353.642 268.785C353.642 270.815 353.945 272.542 354.552 273.965C355.182 275.365 356.033 276.438 357.107 277.185C358.203 277.908 359.428 278.27 360.782 278.27C361.972 278.27 363.022 278.06 363.932 277.64C364.842 277.197 365.6 276.637 366.207 275.96V271.13L361.937 271.27L362.077 268.085H369.882V277.045C368.925 278.422 367.63 279.495 365.997 280.265C364.387 281.035 362.555 281.42 360.502 281.42ZM125.795 334.84V331.69H139.34V334.84H125.795ZM129.715 316.57H135.035L142.595 341H138.78L133.845 324.83L132.375 319.475L130.905 324.865L125.9 341H122.155L129.715 316.57ZM149.259 332.075V328.925H155.629C157.192 328.925 158.452 328.493 159.409 327.63C160.365 326.767 160.844 325.635 160.844 324.235C160.844 322.882 160.4 321.797 159.514 320.98C158.627 320.14 157.449 319.72 155.979 319.72H149.259V316.57H155.979C157.752 316.57 159.292 316.885 160.599 317.515C161.905 318.145 162.92 319.032 163.644 320.175C164.367 321.318 164.729 322.672 164.729 324.235C164.729 325.798 164.355 327.175 163.609 328.365C162.862 329.532 161.8 330.442 160.424 331.095C159.07 331.748 157.484 332.075 155.664 332.075H149.259ZM146.599 341V316.57H150.309V341H146.599ZM172.022 332.075V328.925H178.392C179.956 328.925 181.216 328.493 182.172 327.63C183.129 326.767 183.607 325.635 183.607 324.235C183.607 322.882 183.164 321.797 182.277 320.98C181.391 320.14 180.212 319.72 178.742 319.72H172.022V316.57H178.742C180.516 316.57 182.056 316.885 183.362 317.515C184.669 318.145 185.684 319.032 186.407 320.175C187.131 321.318 187.492 322.672 187.492 324.235C187.492 325.798 187.119 327.175 186.372 328.365C185.626 329.532 184.564 330.442 183.187 331.095C181.834 331.748 180.247 332.075 178.427 332.075H172.022ZM169.362 341V316.57H173.072V341H169.362ZM193.141 341V316.57H196.851V337.85H209.661V341H193.141ZM221.575 341V316.57H225.285V341H221.575ZM215.45 316.57H231.375V319.72H215.45V316.57ZM215.45 337.85H231.375V341H215.45V337.85ZM246.613 341.42C244.467 341.42 242.6 340.883 241.013 339.81C239.45 338.713 238.237 337.22 237.373 335.33C236.533 333.417 236.113 331.223 236.113 328.75C236.113 326.183 236.557 323.955 237.443 322.065C238.33 320.175 239.567 318.717 241.153 317.69C242.763 316.663 244.63 316.15 246.753 316.15C248.457 316.15 249.997 316.488 251.373 317.165C252.773 317.818 253.905 318.775 254.768 320.035C255.655 321.272 256.168 322.753 256.308 324.48H252.248C252.062 322.917 251.478 321.668 250.498 320.735C249.518 319.778 248.258 319.3 246.718 319.3C245.388 319.3 244.21 319.685 243.183 320.455C242.18 321.202 241.398 322.287 240.838 323.71C240.278 325.133 239.998 326.825 239.998 328.785C239.998 330.745 240.278 332.437 240.838 333.86C241.422 335.283 242.215 336.38 243.218 337.15C244.222 337.897 245.353 338.27 246.613 338.27C247.71 338.27 248.667 338.048 249.483 337.605C250.3 337.138 250.953 336.497 251.443 335.68C251.957 334.863 252.26 333.907 252.353 332.81H256.448C256.285 334.537 255.783 336.053 254.943 337.36C254.103 338.643 252.972 339.647 251.548 340.37C250.148 341.07 248.503 341.42 246.613 341.42ZM262.377 334.84V331.69H275.922V334.84H262.377ZM266.297 316.57H271.617L279.177 341H275.362L270.427 324.83L268.957 319.475L267.487 324.865L262.482 341H258.737L266.297 316.57ZM289.866 341V319.72H281.991V316.57H301.451V319.72H293.576V341H289.866ZM312.629 341V316.57H316.339V341H312.629ZM306.504 316.57H322.429V319.72H306.504V316.57ZM306.504 337.85H322.429V341H306.504V337.85ZM337.283 341.42C335.206 341.42 333.398 340.907 331.858 339.88C330.318 338.83 329.116 337.36 328.253 335.47C327.413 333.58 326.993 331.352 326.993 328.785C326.993 326.195 327.413 323.955 328.253 322.065C329.116 320.175 330.318 318.717 331.858 317.69C333.398 316.663 335.206 316.15 337.283 316.15C339.36 316.15 341.168 316.663 342.708 317.69C344.248 318.717 345.438 320.175 346.278 322.065C347.141 323.955 347.573 326.195 347.573 328.785C347.573 331.352 347.141 333.58 346.278 335.47C345.438 337.36 344.248 338.83 342.708 339.88C341.168 340.907 339.36 341.42 337.283 341.42ZM337.283 338.27C338.566 338.27 339.686 337.885 340.643 337.115C341.6 336.345 342.346 335.248 342.883 333.825C343.42 332.402 343.688 330.722 343.688 328.785C343.688 326.825 343.42 325.145 342.883 323.745C342.346 322.322 341.6 321.225 340.643 320.455C339.686 319.685 338.566 319.3 337.283 319.3C336.023 319.3 334.903 319.685 333.923 320.455C332.966 321.225 332.22 322.322 331.683 323.745C331.146 325.168 330.878 326.848 330.878 328.785C330.878 330.722 331.146 332.402 331.683 333.825C332.22 335.248 332.966 336.345 333.923 337.115C334.903 337.885 336.023 338.27 337.283 338.27ZM350.982 341V316.57H355.602L365.787 336.17L365.507 328.61V316.57H369.077V341H364.492L354.237 321.61L354.552 328.925V341H350.982Z" fill="black"/>
<path d="M24.71 582.312C23.306 582.312 22.084 582.043 21.044 581.506C20.004 580.969 19.198 580.197 18.626 579.192C18.054 578.187 17.768 576.965 17.768 575.526H20.498C20.498 576.947 20.8707 578.048 21.616 578.828C22.3613 579.591 23.384 579.972 24.684 579.972C25.7933 579.972 26.686 579.721 27.362 579.218C28.038 578.698 28.376 577.979 28.376 577.06C28.376 576.436 28.1853 575.933 27.804 575.552C27.44 575.171 26.946 574.859 26.322 574.616C25.7153 574.373 25.048 574.157 24.32 573.966C23.592 573.775 22.8553 573.567 22.11 573.342C21.382 573.099 20.706 572.796 20.082 572.432C19.4753 572.068 18.9813 571.583 18.6 570.976C18.236 570.369 18.054 569.598 18.054 568.662C18.054 567.674 18.314 566.799 18.834 566.036C19.3713 565.256 20.108 564.649 21.044 564.216C21.9973 563.765 23.1153 563.54 24.398 563.54C25.646 563.54 26.764 563.774 27.752 564.242C28.74 564.693 29.5287 565.343 30.118 566.192C30.7247 567.024 31.0367 568.029 31.054 569.208H28.298C28.2807 568.515 28.09 567.925 27.726 567.44C27.3793 566.937 26.9113 566.556 26.322 566.296C25.75 566.019 25.1087 565.88 24.398 565.88C23.3753 565.88 22.5433 566.123 21.902 566.608C21.2607 567.093 20.94 567.752 20.94 568.584C20.94 569.173 21.122 569.641 21.486 569.988C21.8673 570.335 22.3613 570.621 22.968 570.846C23.592 571.054 24.268 571.253 24.996 571.444C25.7413 571.617 26.478 571.825 27.206 572.068C27.934 572.293 28.6013 572.605 29.208 573.004C29.832 573.385 30.326 573.905 30.69 574.564C31.0713 575.205 31.262 576.029 31.262 577.034C31.262 578.109 30.976 579.045 30.404 579.842C29.832 580.622 29.052 581.229 28.064 581.662C27.076 582.095 25.958 582.312 24.71 582.312ZM45.1042 582L45.0002 578.75V572.64C45.0002 571.617 44.6622 570.82 43.9862 570.248C43.3275 569.659 42.4175 569.364 41.2562 569.364C40.1295 569.364 39.2108 569.624 38.5002 570.144C37.7895 570.647 37.3995 571.349 37.3302 572.25H34.7562C34.8428 571.227 35.1722 570.361 35.7442 569.65C36.3162 568.922 37.0788 568.367 38.0322 567.986C38.9855 567.587 40.0862 567.388 41.3342 567.388C42.6168 567.388 43.7262 567.605 44.6622 568.038C45.5982 568.454 46.3175 569.061 46.8202 569.858C47.3402 570.655 47.6002 571.626 47.6002 572.77V582H45.1042ZM39.9302 582.312C38.9942 582.312 38.1708 582.147 37.4602 581.818C36.7495 581.471 36.1948 580.986 35.7962 580.362C35.3975 579.721 35.1982 578.975 35.1982 578.126C35.1982 576.653 35.7615 575.509 36.8882 574.694C38.0322 573.879 39.6268 573.472 41.6722 573.472H45.3382V575.422H41.5682C40.3895 575.422 39.4622 575.647 38.7862 576.098C38.1275 576.549 37.7982 577.181 37.7982 577.996C37.7982 578.672 38.0322 579.201 38.5002 579.582C38.9855 579.963 39.6355 580.154 40.4502 580.154C41.4902 580.154 42.4088 579.877 43.2062 579.322C44.0208 578.75 44.6795 577.97 45.1822 576.982L45.4682 578.906C45.0175 579.998 44.3242 580.839 43.3882 581.428C42.4522 582.017 41.2995 582.312 39.9302 582.312ZM56.7883 582L51.1983 567.7H53.9803L57.2823 576.306L58.2963 579.582L59.3363 576.306L62.6383 567.7H65.3163L59.7523 582H56.7883ZM75.3365 582.312C73.8631 582.312 72.5891 582.017 71.5145 581.428C70.4398 580.821 69.6165 579.963 69.0445 578.854C68.4725 577.727 68.1865 576.384 68.1865 574.824C68.1865 573.264 68.4725 571.929 69.0445 570.82C69.6338 569.711 70.4658 568.861 71.5405 568.272C72.6325 567.683 73.9325 567.388 75.4405 567.388C77.7458 567.388 79.4618 568.029 80.5885 569.312C81.7151 570.577 82.2091 572.319 82.0705 574.538H70.2665L70.2925 572.562L79.3925 572.588C79.3231 571.669 78.9245 570.933 78.1965 570.378C77.4685 569.823 76.5498 569.546 75.4405 569.546C73.9498 569.546 72.8058 570.014 72.0085 570.95C71.2111 571.886 70.8125 573.212 70.8125 574.928C70.8125 575.951 70.9858 576.861 71.3325 577.658C71.6965 578.438 72.2165 579.045 72.8925 579.478C73.5685 579.911 74.3831 580.128 75.3365 580.128C76.4631 580.128 77.3991 579.859 78.1445 579.322C78.9071 578.785 79.3751 578.057 79.5485 577.138H82.1745C81.9491 578.75 81.2298 580.015 80.0165 580.934C78.8031 581.853 77.2431 582.312 75.3365 582.312ZM90.4526 582V578.802H93.6766V582L91.8826 586.602H89.5426L90.4006 585.068L92.2726 581.974L90.4526 582ZM119.619 582V563.852H132.645V566.192H122.375V571.418H129.447V573.758H122.375V579.66H132.749V582H119.619ZM142.067 567.388C143.055 567.388 143.956 567.587 144.771 567.986C145.586 568.367 146.244 568.905 146.747 569.598V562.89H149.347V582H146.877L146.799 579.998C146.296 580.691 145.629 581.255 144.797 581.688C143.982 582.104 143.072 582.312 142.067 582.312C140.802 582.312 139.684 581.991 138.713 581.35C137.742 580.709 136.98 579.825 136.425 578.698C135.888 577.571 135.619 576.289 135.619 574.85C135.619 573.394 135.888 572.103 136.425 570.976C136.98 569.849 137.742 568.974 138.713 568.35C139.684 567.709 140.802 567.388 142.067 567.388ZM142.639 580.102C143.575 580.102 144.407 579.842 145.135 579.322C145.863 578.785 146.4 578.065 146.747 577.164V572.51C146.4 571.591 145.863 570.881 145.135 570.378C144.407 569.858 143.575 569.598 142.639 569.598C141.772 569.598 141.01 569.823 140.351 570.274C139.692 570.707 139.172 571.323 138.791 572.12C138.427 572.9 138.245 573.81 138.245 574.85C138.245 575.873 138.427 576.783 138.791 577.58C139.172 578.36 139.692 578.975 140.351 579.426C141.01 579.877 141.772 580.102 142.639 580.102ZM158.561 582V567.7H161.187V582H158.561ZM153.283 582V579.868H166.101V582H153.283ZM155.181 569.832V567.7H159.861V569.832H155.181ZM158.379 565.256V562.422H161.317V565.256H158.379ZM177.811 582C176.927 582 176.173 581.827 175.549 581.48C174.925 581.116 174.457 580.605 174.145 579.946C173.833 579.287 173.677 578.516 173.677 577.632V564.996L176.303 563.566V577.632C176.303 578.048 176.364 578.429 176.485 578.776C176.607 579.123 176.841 579.391 177.187 579.582C177.551 579.773 178.08 579.868 178.773 579.868H183.063V582H177.811ZM170.297 569.832V567.7H180.775V569.832H170.297ZM214.206 582L214.102 578.75V572.64C214.102 571.617 213.764 570.82 213.088 570.248C212.429 569.659 211.519 569.364 210.358 569.364C209.231 569.364 208.312 569.624 207.602 570.144C206.891 570.647 206.501 571.349 206.432 572.25H203.858C203.944 571.227 204.274 570.361 204.846 569.65C205.418 568.922 206.18 568.367 207.134 567.986C208.087 567.587 209.188 567.388 210.436 567.388C211.718 567.388 212.828 567.605 213.764 568.038C214.7 568.454 215.419 569.061 215.922 569.858C216.442 570.655 216.702 571.626 216.702 572.77V582H214.206ZM209.032 582.312C208.096 582.312 207.272 582.147 206.562 581.818C205.851 581.471 205.296 580.986 204.898 580.362C204.499 579.721 204.3 578.975 204.3 578.126C204.3 576.653 204.863 575.509 205.99 574.694C207.134 573.879 208.728 573.472 210.774 573.472H214.44V575.422H210.67C209.491 575.422 208.564 575.647 207.888 576.098C207.229 576.549 206.9 577.181 206.9 577.996C206.9 578.672 207.134 579.201 207.602 579.582C208.087 579.963 208.737 580.154 209.552 580.154C210.592 580.154 211.51 579.877 212.308 579.322C213.122 578.75 213.781 577.97 214.284 576.982L214.57 578.906C214.119 579.998 213.426 580.839 212.49 581.428C211.554 582.017 210.401 582.312 209.032 582.312ZM231.22 582V572.978C231.22 571.973 230.934 571.167 230.362 570.56C229.79 569.936 229.045 569.624 228.126 569.624C227.069 569.624 226.124 570.014 225.292 570.794C224.477 571.557 223.827 572.753 223.342 574.382L222.926 571.444C223.463 570.092 224.235 569.078 225.24 568.402C226.263 567.726 227.372 567.388 228.568 567.388C229.643 567.388 230.57 567.622 231.35 568.09C232.147 568.541 232.763 569.173 233.196 569.988C233.629 570.803 233.846 571.765 233.846 572.874V582H231.22ZM221.028 582V567.7H223.524L223.654 570.924V582H221.028ZM243.528 567.388C244.516 567.388 245.417 567.587 246.232 567.986C247.047 568.367 247.705 568.905 248.208 569.598V562.89H250.808V582H248.338L248.26 579.998C247.757 580.691 247.09 581.255 246.258 581.688C245.443 582.104 244.533 582.312 243.528 582.312C242.263 582.312 241.145 581.991 240.174 581.35C239.203 580.709 238.441 579.825 237.886 578.698C237.349 577.571 237.08 576.289 237.08 574.85C237.08 573.394 237.349 572.103 237.886 570.976C238.441 569.849 239.203 568.974 240.174 568.35C241.145 567.709 242.263 567.388 243.528 567.388ZM244.1 580.102C245.036 580.102 245.868 579.842 246.596 579.322C247.324 578.785 247.861 578.065 248.208 577.164V572.51C247.861 571.591 247.324 570.881 246.596 570.378C245.868 569.858 245.036 569.598 244.1 569.598C243.233 569.598 242.471 569.823 241.812 570.274C241.153 570.707 240.633 571.323 240.252 572.12C239.888 572.9 239.706 573.81 239.706 574.85C239.706 575.873 239.888 576.783 240.252 577.58C240.633 578.36 241.153 578.975 241.812 579.426C242.471 579.877 243.233 580.102 244.1 580.102ZM270.328 582L271.68 563.852H275.294L277.608 574.59L278.154 578.126L278.726 574.59L280.988 563.852H284.55L285.928 582H283.198L282.6 570.638L282.496 566.634L281.716 570.638L279.246 582H276.906L274.462 570.638L273.734 566.582L273.578 570.638L273.006 582H270.328ZM298.757 582L298.653 578.75V572.64C298.653 571.617 298.315 570.82 297.639 570.248C296.98 569.659 296.07 569.364 294.909 569.364C293.782 569.364 292.863 569.624 292.153 570.144C291.442 570.647 291.052 571.349 290.983 572.25H288.409C288.495 571.227 288.825 570.361 289.397 569.65C289.969 568.922 290.731 568.367 291.685 567.986C292.638 567.587 293.739 567.388 294.987 567.388C296.269 567.388 297.379 567.605 298.315 568.038C299.251 568.454 299.97 569.061 300.473 569.858C300.993 570.655 301.252 571.626 301.252 572.77V582H298.757ZM293.583 582.312C292.647 582.312 291.823 582.147 291.113 581.818C290.402 581.471 289.847 580.986 289.449 580.362C289.05 579.721 288.851 578.975 288.851 578.126C288.851 576.653 289.414 575.509 290.541 574.694C291.685 573.879 293.279 573.472 295.325 573.472H298.991V575.422H295.221C294.042 575.422 293.115 575.647 292.439 576.098C291.78 576.549 291.451 577.181 291.451 577.996C291.451 578.672 291.685 579.201 292.153 579.582C292.638 579.963 293.288 580.154 294.103 580.154C295.143 580.154 296.061 579.877 296.859 579.322C297.673 578.75 298.332 577.97 298.835 576.982L299.121 578.906C298.67 579.998 297.977 580.839 297.041 581.428C296.105 582.017 294.952 582.312 293.583 582.312ZM315.771 582V572.978C315.771 571.973 315.485 571.167 314.913 570.56C314.341 569.936 313.595 569.624 312.677 569.624C311.619 569.624 310.675 570.014 309.843 570.794C309.028 571.557 308.378 572.753 307.893 574.382L307.477 571.444C308.014 570.092 308.785 569.078 309.791 568.402C310.813 567.726 311.923 567.388 313.119 567.388C314.193 567.388 315.121 567.622 315.901 568.09C316.698 568.541 317.313 569.173 317.747 569.988C318.18 570.803 318.397 571.765 318.397 572.874V582H315.771ZM305.579 582V567.7H308.075L308.205 570.924V582H305.579ZM332.577 582L332.473 578.75V572.64C332.473 571.617 332.135 570.82 331.459 570.248C330.8 569.659 329.89 569.364 328.729 569.364C327.602 569.364 326.683 569.624 325.973 570.144C325.262 570.647 324.872 571.349 324.803 572.25H322.229C322.315 571.227 322.645 570.361 323.217 569.65C323.789 568.922 324.551 568.367 325.505 567.986C326.458 567.587 327.559 567.388 328.807 567.388C330.089 567.388 331.199 567.605 332.135 568.038C333.071 568.454 333.79 569.061 334.293 569.858C334.813 570.655 335.073 571.626 335.073 572.77V582H332.577ZM327.403 582.312C326.467 582.312 325.643 582.147 324.933 581.818C324.222 581.471 323.667 580.986 323.269 580.362C322.87 579.721 322.671 578.975 322.671 578.126C322.671 576.653 323.234 575.509 324.361 574.694C325.505 573.879 327.099 573.472 329.145 573.472H332.811V575.422H329.041C327.862 575.422 326.935 575.647 326.259 576.098C325.6 576.549 325.271 577.181 325.271 577.996C325.271 578.672 325.505 579.201 325.973 579.582C326.458 579.963 327.108 580.154 327.923 580.154C328.963 580.154 329.881 579.877 330.679 579.322C331.493 578.75 332.152 577.97 332.655 576.982L332.941 578.906C332.49 579.998 331.797 580.839 330.861 581.428C329.925 582.017 328.772 582.312 327.403 582.312ZM349.721 569.754L349.799 567.7H352.269V580.44C352.269 582.555 351.697 584.167 350.553 585.276C349.426 586.385 347.719 586.94 345.431 586.94C344.166 586.94 343.065 586.767 342.129 586.42C341.21 586.073 340.482 585.553 339.945 584.86C339.425 584.184 339.13 583.335 339.061 582.312H341.791C341.878 583.092 342.224 583.69 342.831 584.106C343.455 584.539 344.365 584.756 345.561 584.756C346.913 584.756 347.927 584.409 348.603 583.716C349.296 583.023 349.643 582.035 349.643 580.752V578.854C349.158 579.582 348.508 580.154 347.693 580.57C346.896 580.986 346.003 581.194 345.015 581.194C343.784 581.194 342.692 580.899 341.739 580.31C340.803 579.721 340.066 578.906 339.529 577.866C338.992 576.809 338.723 575.621 338.723 574.304C338.723 572.883 339 571.661 339.555 570.638C340.11 569.598 340.872 568.801 341.843 568.246C342.814 567.674 343.914 567.388 345.145 567.388C346.133 567.388 347.026 567.605 347.823 568.038C348.62 568.471 349.253 569.043 349.721 569.754ZM345.587 579.14C346.523 579.14 347.355 578.871 348.083 578.334C348.828 577.779 349.348 577.034 349.643 576.098V572.484C349.348 571.548 348.828 570.811 348.083 570.274C347.355 569.719 346.523 569.442 345.587 569.442C344.738 569.442 343.992 569.65 343.351 570.066C342.727 570.482 342.233 571.054 341.869 571.782C341.522 572.493 341.349 573.325 341.349 574.278C341.349 575.214 341.522 576.055 341.869 576.8C342.233 577.528 342.727 578.1 343.351 578.516C343.992 578.932 344.738 579.14 345.587 579.14ZM362.809 582.312C361.336 582.312 360.062 582.017 358.987 581.428C357.912 580.821 357.089 579.963 356.517 578.854C355.945 577.727 355.659 576.384 355.659 574.824C355.659 573.264 355.945 571.929 356.517 570.82C357.106 569.711 357.938 568.861 359.013 568.272C360.105 567.683 361.405 567.388 362.913 567.388C365.218 567.388 366.934 568.029 368.061 569.312C369.188 570.577 369.682 572.319 369.543 574.538H357.739L357.765 572.562L366.865 572.588C366.796 571.669 366.397 570.933 365.669 570.378C364.941 569.823 364.022 569.546 362.913 569.546C361.422 569.546 360.278 570.014 359.481 570.95C358.684 571.886 358.285 573.212 358.285 574.928C358.285 575.951 358.458 576.861 358.805 577.658C359.169 578.438 359.689 579.045 360.365 579.478C361.041 579.911 361.856 580.128 362.809 580.128C363.936 580.128 364.872 579.859 365.617 579.322C366.38 578.785 366.848 578.057 367.021 577.138H369.647C369.422 578.75 368.702 580.015 367.489 580.934C366.276 581.853 364.716 582.312 362.809 582.312ZM23.124 604.772L24.476 608.334L25.828 604.746L28.818 597.7H31.548L24.918 613.326C24.5193 614.245 24.086 614.964 23.618 615.484C23.1673 616.021 22.656 616.394 22.084 616.602C21.512 616.827 20.8447 616.94 20.082 616.94H17.534V614.808H19.9C20.3507 614.808 20.732 614.704 21.044 614.496C21.3733 614.305 21.668 614.011 21.928 613.612C22.188 613.231 22.448 612.728 22.708 612.104L23.098 611.168L17.404 597.7H20.134L23.124 604.772ZM41.3342 612.312C39.8608 612.312 38.5868 612.009 37.5122 611.402C36.4548 610.795 35.6402 609.937 35.0682 608.828C34.4962 607.701 34.2102 606.375 34.2102 604.85C34.2102 603.29 34.4962 601.964 35.0682 600.872C35.6402 599.763 36.4548 598.905 37.5122 598.298C38.5868 597.691 39.8695 597.388 41.3602 597.388C43.5788 597.388 45.3208 598.055 46.5862 599.39C47.8515 600.707 48.4842 602.527 48.4842 604.85C48.4842 606.375 48.1982 607.701 47.6262 608.828C47.0542 609.937 46.2308 610.795 45.1562 611.402C44.0988 612.009 42.8248 612.312 41.3342 612.312ZM41.3602 610.128C42.7468 610.128 43.8388 609.66 44.6362 608.724C45.4508 607.771 45.8582 606.479 45.8582 604.85C45.8582 603.203 45.4508 601.912 44.6362 600.976C43.8388 600.04 42.7468 599.572 41.3602 599.572C39.9562 599.572 38.8555 600.04 38.0582 600.976C37.2608 601.912 36.8622 603.203 36.8622 604.85C36.8622 606.479 37.2608 607.771 38.0582 608.724C38.8555 609.66 39.9562 610.128 41.3602 610.128ZM54.2923 597.7V606.722C54.2923 607.727 54.5783 608.542 55.1503 609.166C55.7223 609.773 56.4676 610.076 57.3863 610.076C58.4436 610.076 59.3796 609.695 60.1943 608.932C61.0263 608.152 61.685 606.947 62.1703 605.318L62.5863 608.256C62.049 609.608 61.269 610.622 60.2463 611.298C59.241 611.974 58.1403 612.312 56.9443 612.312C55.8696 612.312 54.9336 612.087 54.1363 611.636C53.3563 611.168 52.7496 610.527 52.3163 609.712C51.883 608.897 51.6663 607.935 51.6663 606.826V597.7H54.2923ZM64.4843 597.7V612H61.9883L61.8583 608.776V597.7H64.4843ZM79.0805 603.836V602.12C79.0805 601.375 78.8551 600.777 78.4045 600.326C77.9538 599.858 77.3038 599.624 76.4545 599.624C75.3798 599.624 74.4178 600.031 73.5685 600.846C72.7191 601.643 72.0431 602.865 71.5405 604.512L71.1765 601.86C71.5578 600.872 72.0171 600.049 72.5545 599.39C73.1091 598.731 73.7418 598.237 74.4525 597.908C75.1805 597.561 75.9778 597.388 76.8445 597.388C78.2831 597.388 79.4531 597.804 80.3545 598.636C81.2558 599.451 81.7065 600.612 81.7065 602.12V603.836H79.0805ZM69.4085 612V597.7H71.8785L72.0345 600.95V612H69.4085ZM112.849 612V602.978C112.849 601.973 112.563 601.167 111.991 600.56C111.419 599.936 110.673 599.624 109.755 599.624C108.697 599.624 107.753 600.014 106.921 600.794C106.106 601.557 105.456 602.753 104.971 604.382L104.555 601.444C105.092 600.092 105.863 599.078 106.869 598.402C107.891 597.726 109.001 597.388 110.197 597.388C111.271 597.388 112.199 597.622 112.979 598.09C113.776 598.541 114.391 599.173 114.825 599.988C115.258 600.803 115.475 601.765 115.475 602.874V612H112.849ZM102.657 612V597.7H105.153L105.283 600.924V612H102.657ZM125.885 612.312C124.412 612.312 123.138 612.009 122.063 611.402C121.006 610.795 120.191 609.937 119.619 608.828C119.047 607.701 118.761 606.375 118.761 604.85C118.761 603.29 119.047 601.964 119.619 600.872C120.191 599.763 121.006 598.905 122.063 598.298C123.138 597.691 124.42 597.388 125.911 597.388C128.13 597.388 129.872 598.055 131.137 599.39C132.402 600.707 133.035 602.527 133.035 604.85C133.035 606.375 132.749 607.701 132.177 608.828C131.605 609.937 130.782 610.795 129.707 611.402C128.65 612.009 127.376 612.312 125.885 612.312ZM125.911 610.128C127.298 610.128 128.39 609.66 129.187 608.724C130.002 607.771 130.409 606.479 130.409 604.85C130.409 603.203 130.002 601.912 129.187 600.976C128.39 600.04 127.298 599.572 125.911 599.572C124.507 599.572 123.406 600.04 122.609 600.976C121.812 601.912 121.413 603.203 121.413 604.85C121.413 606.479 121.812 607.771 122.609 608.724C123.406 609.66 124.507 610.128 125.911 610.128ZM143.991 612C143.107 612 142.353 611.827 141.729 611.48C141.105 611.116 140.637 610.605 140.325 609.946C140.013 609.287 139.857 608.516 139.857 607.632V594.996L142.483 593.566V607.632C142.483 608.048 142.544 608.429 142.665 608.776C142.786 609.123 143.02 609.391 143.367 609.582C143.731 609.773 144.26 609.868 144.953 609.868H149.243V612H143.991ZM136.477 599.832V597.7H146.955V599.832H136.477ZM159.887 612.312C158.414 612.312 157.14 612.017 156.065 611.428C154.991 610.821 154.167 609.963 153.595 608.854C153.023 607.727 152.737 606.384 152.737 604.824C152.737 603.264 153.023 601.929 153.595 600.82C154.185 599.711 155.017 598.861 156.091 598.272C157.183 597.683 158.483 597.388 159.991 597.388C162.297 597.388 164.013 598.029 165.139 599.312C166.266 600.577 166.76 602.319 166.621 604.538H154.817L154.843 602.562L163.943 602.588C163.874 601.669 163.475 600.933 162.747 600.378C162.019 599.823 161.101 599.546 159.991 599.546C158.501 599.546 157.357 600.014 156.559 600.95C155.762 601.886 155.363 603.212 155.363 604.928C155.363 605.951 155.537 606.861 155.883 607.658C156.247 608.438 156.767 609.045 157.443 609.478C158.119 609.911 158.934 610.128 159.887 610.128C161.014 610.128 161.95 609.859 162.695 609.322C163.458 608.785 163.926 608.057 164.099 607.138H166.725C166.5 608.75 165.781 610.015 164.567 610.934C163.354 611.853 161.794 612.312 159.887 612.312ZM177.031 612.312C175.766 612.312 174.648 612.095 173.677 611.662C172.724 611.211 171.987 610.587 171.467 609.79C170.947 608.975 170.679 608.005 170.661 606.878H173.131C173.131 607.935 173.487 608.767 174.197 609.374C174.908 609.981 175.844 610.284 177.005 610.284C177.993 610.284 178.782 610.102 179.371 609.738C179.978 609.357 180.281 608.845 180.281 608.204C180.281 607.701 180.108 607.303 179.761 607.008C179.432 606.696 178.99 606.453 178.435 606.28C177.881 606.107 177.265 605.959 176.589 605.838C175.931 605.699 175.263 605.543 174.587 605.37C173.929 605.179 173.322 604.945 172.767 604.668C172.213 604.373 171.762 603.983 171.415 603.498C171.069 603.013 170.895 602.38 170.895 601.6C170.895 600.785 171.129 600.066 171.597 599.442C172.065 598.801 172.724 598.298 173.573 597.934C174.44 597.57 175.463 597.388 176.641 597.388C178.427 597.388 179.857 597.804 180.931 598.636C182.023 599.451 182.613 600.577 182.699 602.016H180.229C180.177 601.184 179.831 600.543 179.189 600.092C178.565 599.624 177.716 599.39 176.641 599.39C175.636 599.39 174.865 599.589 174.327 599.988C173.807 600.387 173.547 600.889 173.547 601.496C173.547 601.964 173.721 602.337 174.067 602.614C174.414 602.874 174.865 603.082 175.419 603.238C175.974 603.377 176.581 603.507 177.239 603.628C177.915 603.732 178.583 603.871 179.241 604.044C179.917 604.217 180.533 604.46 181.087 604.772C181.642 605.067 182.084 605.474 182.413 605.994C182.76 606.514 182.933 607.19 182.933 608.022C182.933 609.357 182.396 610.405 181.321 611.168C180.247 611.931 178.817 612.312 177.031 612.312ZM204.924 612L202.558 597.648H205.002L206.25 605.76L206.77 609.244L207.498 605.76L209.318 597.648H211.684L213.582 605.76L214.31 609.27L214.804 605.76L216.052 597.648H218.418L216.052 612H212.958L211.086 604.148L210.488 600.274L209.89 604.148L208.018 612H204.924ZM226.202 612V597.7H228.828V612H226.202ZM220.924 612V609.868H233.742V612H220.924ZM222.822 599.832V597.7H227.502V599.832H222.822ZM226.02 595.256V592.422H228.958V595.256H226.02ZM245.452 612C244.568 612 243.814 611.827 243.19 611.48C242.566 611.116 242.098 610.605 241.786 609.946C241.474 609.287 241.318 608.516 241.318 607.632V594.996L243.944 593.566V607.632C243.944 608.048 244.005 608.429 244.126 608.776C244.247 609.123 244.481 609.391 244.828 609.582C245.192 609.773 245.721 609.868 246.414 609.868H250.704V612H245.452ZM237.938 599.832V597.7H248.416V599.832H237.938ZM265.04 612V603.004C265.04 601.981 264.754 601.167 264.182 600.56C263.61 599.936 262.865 599.624 261.946 599.624C260.889 599.624 259.944 600.014 259.112 600.794C258.298 601.557 257.648 602.753 257.162 604.382L256.746 601.47C257.284 600.101 258.055 599.078 259.06 598.402C260.083 597.726 261.192 597.388 262.388 597.388C263.463 597.388 264.39 597.622 265.17 598.09C265.968 598.541 266.583 599.182 267.016 600.014C267.45 600.829 267.666 601.791 267.666 602.9V612H265.04ZM254.848 612V592.864H257.474V612H254.848ZM298.757 612L298.653 608.75V602.64C298.653 601.617 298.315 600.82 297.639 600.248C296.98 599.659 296.07 599.364 294.909 599.364C293.782 599.364 292.863 599.624 292.153 600.144C291.442 600.647 291.052 601.349 290.983 602.25H288.409C288.495 601.227 288.825 600.361 289.397 599.65C289.969 598.922 290.731 598.367 291.685 597.986C292.638 597.587 293.739 597.388 294.987 597.388C296.269 597.388 297.379 597.605 298.315 598.038C299.251 598.454 299.97 599.061 300.473 599.858C300.993 600.655 301.252 601.626 301.252 602.77V612H298.757ZM293.583 612.312C292.647 612.312 291.823 612.147 291.113 611.818C290.402 611.471 289.847 610.986 289.449 610.362C289.05 609.721 288.851 608.975 288.851 608.126C288.851 606.653 289.414 605.509 290.541 604.694C291.685 603.879 293.279 603.472 295.325 603.472H298.991V605.422H295.221C294.042 605.422 293.115 605.647 292.439 606.098C291.78 606.549 291.451 607.181 291.451 607.996C291.451 608.672 291.685 609.201 292.153 609.582C292.638 609.963 293.288 610.154 294.103 610.154C295.143 610.154 296.061 609.877 296.859 609.322C297.673 608.75 298.332 607.97 298.835 606.982L299.121 608.906C298.67 609.998 297.977 610.839 297.041 611.428C296.105 612.017 294.952 612.312 293.583 612.312ZM29.182 642V631.548C29.182 630.924 29.0693 630.439 28.844 630.092C28.636 629.745 28.3067 629.572 27.856 629.572C27.232 629.572 26.6687 629.971 26.166 630.768C25.6807 631.565 25.3427 632.822 25.152 634.538L24.918 632.328C24.97 630.768 25.334 629.555 26.01 628.688C26.7033 627.821 27.5527 627.388 28.558 627.388C29.494 627.388 30.2307 627.735 30.768 628.428C31.3227 629.104 31.6 630.075 31.6 631.34V642H29.182ZM17.3 642V627.7H19.614L19.718 630.482V642H17.3ZM23.254 642V631.548C23.254 630.889 23.1327 630.395 22.89 630.066C22.6647 629.737 22.318 629.572 21.85 629.572C21.1913 629.572 20.628 629.988 20.16 630.82C19.692 631.652 19.3627 632.891 19.172 634.538L19.12 632.25C19.1547 631.227 19.3367 630.352 19.666 629.624C19.9953 628.896 20.42 628.341 20.94 627.96C21.46 627.579 22.0147 627.388 22.604 627.388C23.5747 627.388 24.32 627.743 24.84 628.454C25.3773 629.147 25.646 630.101 25.646 631.314V642H23.254ZM40.1902 642V627.7H42.8162V642H40.1902ZM34.9122 642V639.868H47.7302V642H34.9122ZM36.8102 629.832V627.7H41.4902V629.832H36.8102ZM40.0082 625.256V622.422H42.9462V625.256H40.0082ZM62.1183 642V632.978C62.1183 631.973 61.8323 631.167 61.2603 630.56C60.6883 629.936 59.943 629.624 59.0243 629.624C57.967 629.624 57.0223 630.014 56.1903 630.794C55.3756 631.557 54.7256 632.753 54.2403 634.382L53.8243 631.444C54.3616 630.092 55.133 629.078 56.1383 628.402C57.161 627.726 58.2703 627.388 59.4663 627.388C60.541 627.388 61.4683 627.622 62.2483 628.09C63.0456 628.541 63.661 629.173 64.0943 629.988C64.5276 630.803 64.7443 631.765 64.7443 632.874V642H62.1183ZM51.9263 642V627.7H54.4223L54.5523 630.924V642H51.9263ZM74.0105 642V627.7H76.6365V642H74.0105ZM68.7325 642V639.868H81.5505V642H68.7325ZM70.6305 629.832V627.7H75.3105V629.832H70.6305ZM73.8285 625.256V622.422H76.7665V625.256H73.8285ZM96.8226 642V631.548C96.8226 630.924 96.71 630.439 96.4846 630.092C96.2766 629.745 95.9473 629.572 95.4966 629.572C94.8726 629.572 94.3093 629.971 93.8066 630.768C93.3213 631.565 92.9833 632.822 92.7926 634.538L92.5586 632.328C92.6106 630.768 92.9746 629.555 93.6506 628.688C94.344 627.821 95.1933 627.388 96.1986 627.388C97.1346 627.388 97.8713 627.735 98.4086 628.428C98.9633 629.104 99.2406 630.075 99.2406 631.34V642H96.8226ZM84.9406 642V627.7H87.2546L87.3586 630.482V642H84.9406ZM90.8946 642V631.548C90.8946 630.889 90.7733 630.395 90.5306 630.066C90.3053 629.737 89.9586 629.572 89.4906 629.572C88.832 629.572 88.2686 629.988 87.8006 630.82C87.3326 631.652 87.0033 632.891 86.8126 634.538L86.7606 632.25C86.7953 631.227 86.9773 630.352 87.3066 629.624C87.636 628.896 88.0606 628.341 88.5806 627.96C89.1006 627.579 89.6553 627.388 90.2446 627.388C91.2153 627.388 91.9606 627.743 92.4806 628.454C93.018 629.147 93.2866 630.101 93.2866 631.314V642H90.8946ZM112.745 642L112.641 638.75V632.64C112.641 631.617 112.303 630.82 111.627 630.248C110.968 629.659 110.058 629.364 108.897 629.364C107.77 629.364 106.851 629.624 106.141 630.144C105.43 630.647 105.04 631.349 104.971 632.25H102.397C102.483 631.227 102.813 630.361 103.385 629.65C103.957 628.922 104.719 628.367 105.673 627.986C106.626 627.587 107.727 627.388 108.975 627.388C110.257 627.388 111.367 627.605 112.303 628.038C113.239 628.454 113.958 629.061 114.461 629.858C114.981 630.655 115.241 631.626 115.241 632.77V642H112.745ZM107.571 642.312C106.635 642.312 105.811 642.147 105.101 641.818C104.39 641.471 103.835 640.986 103.437 640.362C103.038 639.721 102.839 638.975 102.839 638.126C102.839 636.653 103.402 635.509 104.529 634.694C105.673 633.879 107.267 633.472 109.313 633.472H112.979V635.422H109.209C108.03 635.422 107.103 635.647 106.427 636.098C105.768 636.549 105.439 637.181 105.439 637.996C105.439 638.672 105.673 639.201 106.141 639.582C106.626 639.963 107.276 640.154 108.091 640.154C109.131 640.154 110.049 639.877 110.847 639.322C111.661 638.75 112.32 637.97 112.823 636.982L113.109 638.906C112.658 639.998 111.965 640.839 111.029 641.428C110.093 642.017 108.94 642.312 107.571 642.312ZM124.611 642V622.89H127.237V642H124.611ZM119.333 642V639.868H132.541V642H119.333ZM121.231 625.022V622.89H125.911V625.022H121.231ZM141.651 642V627.7H144.277V642H141.651ZM136.373 642V639.868H149.191V642H136.373ZM138.271 629.832V627.7H142.951V629.832H138.271ZM141.469 625.256V622.422H144.407V625.256H141.469ZM160.121 642.312C158.856 642.312 157.738 642.095 156.767 641.662C155.814 641.211 155.077 640.587 154.557 639.79C154.037 638.975 153.769 638.005 153.751 636.878H156.221C156.221 637.935 156.577 638.767 157.287 639.374C157.998 639.981 158.934 640.284 160.095 640.284C161.083 640.284 161.872 640.102 162.461 639.738C163.068 639.357 163.371 638.845 163.371 638.204C163.371 637.701 163.198 637.303 162.851 637.008C162.522 636.696 162.08 636.453 161.525 636.28C160.971 636.107 160.355 635.959 159.679 635.838C159.021 635.699 158.353 635.543 157.677 635.37C157.019 635.179 156.412 634.945 155.857 634.668C155.303 634.373 154.852 633.983 154.505 633.498C154.159 633.013 153.985 632.38 153.985 631.6C153.985 630.785 154.219 630.066 154.687 629.442C155.155 628.801 155.814 628.298 156.663 627.934C157.53 627.57 158.553 627.388 159.731 627.388C161.517 627.388 162.947 627.804 164.021 628.636C165.113 629.451 165.703 630.577 165.789 632.016H163.319C163.267 631.184 162.921 630.543 162.279 630.092C161.655 629.624 160.806 629.39 159.731 629.39C158.726 629.39 157.955 629.589 157.417 629.988C156.897 630.387 156.637 630.889 156.637 631.496C156.637 631.964 156.811 632.337 157.157 632.614C157.504 632.874 157.955 633.082 158.509 633.238C159.064 633.377 159.671 633.507 160.329 633.628C161.005 633.732 161.673 633.871 162.331 634.044C163.007 634.217 163.623 634.46 164.177 634.772C164.732 635.067 165.174 635.474 165.503 635.994C165.85 636.514 166.023 637.19 166.023 638.022C166.023 639.357 165.486 640.405 164.411 641.168C163.337 641.931 161.907 642.312 160.121 642.312ZM177.811 642C176.927 642 176.173 641.827 175.549 641.48C174.925 641.116 174.457 640.605 174.145 639.946C173.833 639.287 173.677 638.516 173.677 637.632V624.996L176.303 623.566V637.632C176.303 638.048 176.364 638.429 176.485 638.776C176.607 639.123 176.841 639.391 177.187 639.582C177.551 639.773 178.08 639.868 178.773 639.868H183.063V642H177.811ZM170.297 629.832V627.7H180.775V629.832H170.297ZM192.382 642V627.7H195.008V642H192.382ZM187.104 642V639.868H199.922V642H187.104ZM189.002 629.832V627.7H193.682V629.832H189.002ZM192.2 625.256V622.422H195.138V625.256H192.2ZM210.878 642.312C209.404 642.312 208.122 642.009 207.03 641.402C205.955 640.778 205.123 639.911 204.534 638.802C203.944 637.675 203.65 636.358 203.65 634.85C203.65 633.307 203.953 631.981 204.56 630.872C205.166 629.745 206.016 628.887 207.108 628.298C208.2 627.691 209.474 627.388 210.93 627.388C212.091 627.388 213.131 627.605 214.05 628.038C214.986 628.454 215.74 629.052 216.312 629.832C216.901 630.612 217.239 631.539 217.326 632.614H214.7C214.561 631.643 214.145 630.898 213.452 630.378C212.776 629.841 211.935 629.572 210.93 629.572C209.994 629.572 209.179 629.789 208.486 630.222C207.792 630.638 207.255 631.236 206.874 632.016C206.492 632.796 206.302 633.741 206.302 634.85C206.302 636.497 206.718 637.788 207.55 638.724C208.399 639.66 209.508 640.128 210.878 640.128C211.502 640.128 212.082 640.007 212.62 639.764C213.157 639.521 213.616 639.175 213.998 638.724C214.379 638.256 214.639 637.719 214.778 637.112H217.43C217.256 638.187 216.858 639.114 216.234 639.894C215.627 640.657 214.856 641.255 213.92 641.688C213.001 642.104 211.987 642.312 210.878 642.312ZM248.13 642V632.978C248.13 631.973 247.844 631.167 247.272 630.56C246.7 629.936 245.955 629.624 245.036 629.624C243.979 629.624 243.034 630.014 242.202 630.794C241.387 631.557 240.737 632.753 240.252 634.382L239.836 631.444C240.373 630.092 241.145 629.078 242.15 628.402C243.173 627.726 244.282 627.388 245.478 627.388C246.553 627.388 247.48 627.622 248.26 628.09C249.057 628.541 249.673 629.173 250.106 629.988C250.539 630.803 250.756 631.765 250.756 632.874V642H248.13ZM237.938 642V627.7H240.434L240.564 630.924V642H237.938ZM261.166 642.312C259.693 642.312 258.419 642.009 257.344 641.402C256.287 640.795 255.472 639.937 254.9 638.828C254.328 637.701 254.042 636.375 254.042 634.85C254.042 633.29 254.328 631.964 254.9 630.872C255.472 629.763 256.287 628.905 257.344 628.298C258.419 627.691 259.702 627.388 261.192 627.388C263.411 627.388 265.153 628.055 266.418 629.39C267.684 630.707 268.316 632.527 268.316 634.85C268.316 636.375 268.03 637.701 267.458 638.828C266.886 639.937 266.063 640.795 264.988 641.402C263.931 642.009 262.657 642.312 261.166 642.312ZM261.192 640.128C262.579 640.128 263.671 639.66 264.468 638.724C265.283 637.771 265.69 636.479 265.69 634.85C265.69 633.203 265.283 631.912 264.468 630.976C263.671 630.04 262.579 629.572 261.192 629.572C259.788 629.572 258.688 630.04 257.89 630.976C257.093 631.912 256.694 633.203 256.694 634.85C256.694 636.479 257.093 637.771 257.89 638.724C258.688 639.66 259.788 640.128 261.192 640.128ZM279.272 642C278.388 642 277.634 641.827 277.01 641.48C276.386 641.116 275.918 640.605 275.606 639.946C275.294 639.287 275.138 638.516 275.138 637.632V624.996L277.764 623.566V637.632C277.764 638.048 277.825 638.429 277.946 638.776C278.068 639.123 278.302 639.391 278.648 639.582C279.012 639.773 279.541 639.868 280.234 639.868H284.524V642H279.272ZM271.758 629.832V627.7H282.236V629.832H271.758ZM295.169 642.312C293.695 642.312 292.421 642.017 291.347 641.428C290.272 640.821 289.449 639.963 288.877 638.854C288.305 637.727 288.019 636.384 288.019 634.824C288.019 633.264 288.305 631.929 288.877 630.82C289.466 629.711 290.298 628.861 291.373 628.272C292.465 627.683 293.765 627.388 295.273 627.388C297.578 627.388 299.294 628.029 300.421 629.312C301.547 630.577 302.041 632.319 301.903 634.538H290.099L290.125 632.562L299.225 632.588C299.155 631.669 298.757 630.933 298.029 630.378C297.301 629.823 296.382 629.546 295.273 629.546C293.782 629.546 292.638 630.014 291.841 630.95C291.043 631.886 290.645 633.212 290.645 634.928C290.645 635.951 290.818 636.861 291.165 637.658C291.529 638.438 292.049 639.045 292.725 639.478C293.401 639.911 294.215 640.128 295.169 640.128C296.295 640.128 297.231 639.859 297.977 639.322C298.739 638.785 299.207 638.057 299.381 637.138H302.007C301.781 638.75 301.062 640.015 299.849 640.934C298.635 641.853 297.075 642.312 295.169 642.312ZM25.62 672C24.736 672 23.982 671.827 23.358 671.48C22.734 671.116 22.266 670.605 21.954 669.946C21.642 669.287 21.486 668.516 21.486 667.632V654.996L24.112 653.566V667.632C24.112 668.048 24.1727 668.429 24.294 668.776C24.4153 669.123 24.6493 669.391 24.996 669.582C25.36 669.773 25.8887 669.868 26.582 669.868H30.872V672H25.62ZM18.106 659.832V657.7H28.584V659.832H18.106ZM45.1042 672L45.0002 668.75V662.64C45.0002 661.617 44.6622 660.82 43.9862 660.248C43.3275 659.659 42.4175 659.364 41.2562 659.364C40.1295 659.364 39.2108 659.624 38.5002 660.144C37.7895 660.647 37.3995 661.349 37.3302 662.25H34.7562C34.8428 661.227 35.1722 660.361 35.7442 659.65C36.3162 658.922 37.0788 658.367 38.0322 657.986C38.9855 657.587 40.0862 657.388 41.3342 657.388C42.6168 657.388 43.7262 657.605 44.6622 658.038C45.5982 658.454 46.3175 659.061 46.8202 659.858C47.3402 660.655 47.6002 661.626 47.6002 662.77V672H45.1042ZM39.9302 672.312C38.9942 672.312 38.1708 672.147 37.4602 671.818C36.7495 671.471 36.1948 670.986 35.7962 670.362C35.3975 669.721 35.1982 668.975 35.1982 668.126C35.1982 666.653 35.7615 665.509 36.8882 664.694C38.0322 663.879 39.6268 663.472 41.6722 663.472H45.3382V665.422H41.5682C40.3895 665.422 39.4622 665.647 38.7862 666.098C38.1275 666.549 37.7982 667.181 37.7982 667.996C37.7982 668.672 38.0322 669.201 38.5002 669.582C38.9855 669.963 39.6355 670.154 40.4502 670.154C41.4902 670.154 42.4088 669.877 43.2062 669.322C44.0208 668.75 44.6795 667.97 45.1822 666.982L45.4682 668.906C45.0175 669.998 44.3242 670.839 43.3882 671.428C42.4522 672.017 41.2995 672.312 39.9302 672.312ZM51.5883 672V652.89H54.2143V660.04L54.0843 663.966L56.8403 661.184L60.7403 657.7H64.2243L54.2143 666.8V672H51.5883ZM61.4423 672L56.4243 663.238L58.7383 662.094L64.5103 672H61.4423ZM74.0105 672V657.7H76.6365V672H74.0105ZM68.7325 672V669.868H81.5505V672H68.7325ZM70.6305 659.832V657.7H75.3105V659.832H70.6305ZM73.8285 655.256V652.422H76.7665V655.256H73.8285ZM95.9386 672V662.978C95.9386 661.973 95.6526 661.167 95.0806 660.56C94.5086 659.936 93.7633 659.624 92.8446 659.624C91.7873 659.624 90.8426 660.014 90.0106 660.794C89.196 661.557 88.546 662.753 88.0606 664.382L87.6446 661.444C88.182 660.092 88.9533 659.078 89.9586 658.402C90.9813 657.726 92.0906 657.388 93.2866 657.388C94.3613 657.388 95.2886 657.622 96.0686 658.09C96.866 658.541 97.4813 659.173 97.9146 659.988C98.348 660.803 98.5646 661.765 98.5646 662.874V672H95.9386ZM85.7466 672V657.7H88.2426L88.3726 660.924V672H85.7466ZM112.979 659.754L113.057 657.7H115.527V670.44C115.527 672.555 114.955 674.167 113.811 675.276C112.684 676.385 110.977 676.94 108.689 676.94C107.423 676.94 106.323 676.767 105.387 676.42C104.468 676.073 103.74 675.553 103.203 674.86C102.683 674.184 102.388 673.335 102.319 672.312H105.049C105.135 673.092 105.482 673.69 106.089 674.106C106.713 674.539 107.623 674.756 108.819 674.756C110.171 674.756 111.185 674.409 111.861 673.716C112.554 673.023 112.901 672.035 112.901 670.752V668.854C112.415 669.582 111.765 670.154 110.951 670.57C110.153 670.986 109.261 671.194 108.273 671.194C107.042 671.194 105.95 670.899 104.997 670.31C104.061 669.721 103.324 668.906 102.787 667.866C102.249 666.809 101.981 665.621 101.981 664.304C101.981 662.883 102.258 661.661 102.813 660.638C103.367 659.598 104.13 658.801 105.101 658.246C106.071 657.674 107.172 657.388 108.403 657.388C109.391 657.388 110.283 657.605 111.081 658.038C111.878 658.471 112.511 659.043 112.979 659.754ZM108.845 669.14C109.781 669.14 110.613 668.871 111.341 668.334C112.086 667.779 112.606 667.034 112.901 666.098V662.484C112.606 661.548 112.086 660.811 111.341 660.274C110.613 659.719 109.781 659.442 108.845 659.442C107.995 659.442 107.25 659.65 106.609 660.066C105.985 660.482 105.491 661.054 105.127 661.782C104.78 662.493 104.607 663.325 104.607 664.278C104.607 665.214 104.78 666.055 105.127 666.8C105.491 667.528 105.985 668.1 106.609 668.516C107.25 668.932 107.995 669.14 108.845 669.14ZM146.565 672L146.461 668.75V662.64C146.461 661.617 146.123 660.82 145.447 660.248C144.788 659.659 143.878 659.364 142.717 659.364C141.59 659.364 140.672 659.624 139.961 660.144C139.25 660.647 138.86 661.349 138.791 662.25H136.217C136.304 661.227 136.633 660.361 137.205 659.65C137.777 658.922 138.54 658.367 139.493 657.986C140.446 657.587 141.547 657.388 142.795 657.388C144.078 657.388 145.187 657.605 146.123 658.038C147.059 658.454 147.778 659.061 148.281 659.858C148.801 660.655 149.061 661.626 149.061 662.77V672H146.565ZM141.391 672.312C140.455 672.312 139.632 672.147 138.921 671.818C138.21 671.471 137.656 670.986 137.257 670.362C136.858 669.721 136.659 668.975 136.659 668.126C136.659 666.653 137.222 665.509 138.349 664.694C139.493 663.879 141.088 663.472 143.133 663.472H146.799V665.422H143.029C141.85 665.422 140.923 665.647 140.247 666.098C139.588 666.549 139.259 667.181 139.259 667.996C139.259 668.672 139.493 669.201 139.961 669.582C140.446 669.963 141.096 670.154 141.911 670.154C142.951 670.154 143.87 669.877 144.667 669.322C145.482 668.75 146.14 667.97 146.643 666.982L146.929 668.906C146.478 669.998 145.785 670.839 144.849 671.428C143.913 672.017 142.76 672.312 141.391 672.312ZM160.563 657.388C161.846 657.388 162.964 657.709 163.917 658.35C164.888 658.974 165.651 659.849 166.205 660.976C166.76 662.103 167.037 663.394 167.037 664.85C167.037 666.289 166.76 667.571 166.205 668.698C165.651 669.825 164.888 670.709 163.917 671.35C162.964 671.991 161.846 672.312 160.563 672.312C159.593 672.312 158.7 672.113 157.885 671.714C157.088 671.315 156.429 670.769 155.909 670.076V676.628H153.283V657.7H155.779L155.857 659.65C156.377 658.957 157.045 658.411 157.859 658.012C158.674 657.596 159.575 657.388 160.563 657.388ZM159.991 670.102C160.875 670.102 161.647 669.877 162.305 669.426C162.964 668.975 163.475 668.36 163.839 667.58C164.203 666.783 164.385 665.873 164.385 664.85C164.385 663.81 164.203 662.9 163.839 662.12C163.475 661.323 162.964 660.707 162.305 660.274C161.647 659.823 160.875 659.598 159.991 659.598C159.09 659.598 158.267 659.858 157.521 660.378C156.793 660.881 156.256 661.574 155.909 662.458V667.19C156.256 668.091 156.793 668.802 157.521 669.322C158.267 669.842 159.09 670.102 159.991 670.102ZM177.473 657.388C178.756 657.388 179.874 657.709 180.827 658.35C181.798 658.974 182.561 659.849 183.115 660.976C183.67 662.103 183.947 663.394 183.947 664.85C183.947 666.289 183.67 667.571 183.115 668.698C182.561 669.825 181.798 670.709 180.827 671.35C179.874 671.991 178.756 672.312 177.473 672.312C176.503 672.312 175.61 672.113 174.795 671.714C173.998 671.315 173.339 670.769 172.819 670.076V676.628H170.193V657.7H172.689L172.767 659.65C173.287 658.957 173.955 658.411 174.769 658.012C175.584 657.596 176.485 657.388 177.473 657.388ZM176.901 670.102C177.785 670.102 178.557 669.877 179.215 669.426C179.874 668.975 180.385 668.36 180.749 667.58C181.113 666.783 181.295 665.873 181.295 664.85C181.295 663.81 181.113 662.9 180.749 662.12C180.385 661.323 179.874 660.707 179.215 660.274C178.557 659.823 177.785 659.598 176.901 659.598C176 659.598 175.177 659.858 174.431 660.378C173.703 660.881 173.166 661.574 172.819 662.458V667.19C173.166 668.091 173.703 668.802 174.431 669.322C175.177 669.842 176 670.102 176.901 670.102ZM192.252 672V652.89H194.878V672H192.252ZM186.974 672V669.868H200.182V672H186.974ZM188.872 655.022V652.89H193.552V655.022H188.872ZM209.292 672V657.7H211.918V672H209.292ZM204.014 672V669.868H216.832V672H204.014ZM205.912 659.832V657.7H210.592V659.832H205.912ZM209.11 655.256V652.422H212.048V655.256H209.11ZM227.788 672.312C226.315 672.312 225.032 672.009 223.94 671.402C222.865 670.778 222.033 669.911 221.444 668.802C220.855 667.675 220.56 666.358 220.56 664.85C220.56 663.307 220.863 661.981 221.47 660.872C222.077 659.745 222.926 658.887 224.018 658.298C225.11 657.691 226.384 657.388 227.84 657.388C229.001 657.388 230.041 657.605 230.96 658.038C231.896 658.454 232.65 659.052 233.222 659.832C233.811 660.612 234.149 661.539 234.236 662.614H231.61C231.471 661.643 231.055 660.898 230.362 660.378C229.686 659.841 228.845 659.572 227.84 659.572C226.904 659.572 226.089 659.789 225.396 660.222C224.703 660.638 224.165 661.236 223.784 662.016C223.403 662.796 223.212 663.741 223.212 664.85C223.212 666.497 223.628 667.788 224.46 668.724C225.309 669.66 226.419 670.128 227.788 670.128C228.412 670.128 228.993 670.007 229.53 669.764C230.067 669.521 230.527 669.175 230.908 668.724C231.289 668.256 231.549 667.719 231.688 667.112H234.34C234.167 668.187 233.768 669.114 233.144 669.894C232.537 670.657 231.766 671.255 230.83 671.688C229.911 672.104 228.897 672.312 227.788 672.312ZM248.026 672L247.922 668.75V662.64C247.922 661.617 247.584 660.82 246.908 660.248C246.249 659.659 245.339 659.364 244.178 659.364C243.051 659.364 242.133 659.624 241.422 660.144C240.711 660.647 240.321 661.349 240.252 662.25H237.678C237.765 661.227 238.094 660.361 238.666 659.65C239.238 658.922 240.001 658.367 240.954 657.986C241.907 657.587 243.008 657.388 244.256 657.388C245.539 657.388 246.648 657.605 247.584 658.038C248.52 658.454 249.239 659.061 249.742 659.858C250.262 660.655 250.522 661.626 250.522 662.77V672H248.026ZM242.852 672.312C241.916 672.312 241.093 672.147 240.382 671.818C239.671 671.471 239.117 670.986 238.718 670.362C238.319 669.721 238.12 668.975 238.12 668.126C238.12 666.653 238.683 665.509 239.81 664.694C240.954 663.879 242.549 663.472 244.594 663.472H248.26V665.422H244.49C243.311 665.422 242.384 665.647 241.708 666.098C241.049 666.549 240.72 667.181 240.72 667.996C240.72 668.672 240.954 669.201 241.422 669.582C241.907 669.963 242.557 670.154 243.372 670.154C244.412 670.154 245.331 669.877 246.128 669.322C246.943 668.75 247.601 667.97 248.104 666.982L248.39 668.906C247.939 669.998 247.246 670.839 246.31 671.428C245.374 672.017 244.221 672.312 242.852 672.312ZM262.362 672C261.478 672 260.724 671.827 260.1 671.48C259.476 671.116 259.008 670.605 258.696 669.946C258.384 669.287 258.228 668.516 258.228 667.632V654.996L260.854 653.566V667.632C260.854 668.048 260.915 668.429 261.036 668.776C261.158 669.123 261.392 669.391 261.738 669.582C262.102 669.773 262.631 669.868 263.324 669.868H267.614V672H262.362ZM254.848 659.832V657.7H265.326V659.832H254.848ZM276.932 672V657.7H279.558V672H276.932ZM271.654 672V669.868H284.472V672H271.654ZM273.552 659.832V657.7H278.232V659.832H273.552ZM276.75 655.256V652.422H279.688V655.256H276.75ZM294.987 672.312C293.513 672.312 292.239 672.009 291.165 671.402C290.107 670.795 289.293 669.937 288.721 668.828C288.149 667.701 287.863 666.375 287.863 664.85C287.863 663.29 288.149 661.964 288.721 660.872C289.293 659.763 290.107 658.905 291.165 658.298C292.239 657.691 293.522 657.388 295.013 657.388C297.231 657.388 298.973 658.055 300.239 659.39C301.504 660.707 302.137 662.527 302.137 664.85C302.137 666.375 301.851 667.701 301.279 668.828C300.707 669.937 299.883 670.795 298.809 671.402C297.751 672.009 296.477 672.312 294.987 672.312ZM295.013 670.128C296.399 670.128 297.491 669.66 298.289 668.724C299.103 667.771 299.511 666.479 299.511 664.85C299.511 663.203 299.103 661.912 298.289 660.976C297.491 660.04 296.399 659.572 295.013 659.572C293.609 659.572 292.508 660.04 291.711 660.976C290.913 661.912 290.515 663.203 290.515 664.85C290.515 666.479 290.913 667.771 291.711 668.724C292.508 669.66 293.609 670.128 295.013 670.128ZM315.771 672V662.978C315.771 661.973 315.485 661.167 314.913 660.56C314.341 659.936 313.595 659.624 312.677 659.624C311.619 659.624 310.675 660.014 309.843 660.794C309.028 661.557 308.378 662.753 307.893 664.382L307.477 661.444C308.014 660.092 308.785 659.078 309.791 658.402C310.813 657.726 311.923 657.388 313.119 657.388C314.193 657.388 315.121 657.622 315.901 658.09C316.698 658.541 317.313 659.173 317.747 659.988C318.18 660.803 318.397 661.765 318.397 662.874V672H315.771ZM305.579 672V657.7H308.075L308.205 660.924V672H305.579Z" fill="white"/>
<path d="M62.402 198.4L21.4819 167.571L29.6086 156.785L69.8848 166.267L55.3145 156.209L39.1927 144.063L45.2877 135.973L86.2078 166.801L78.0812 177.588L38.1856 168.576L52.3752 178.164L68.497 190.31L62.402 198.4Z" fill="black"/>
<path d="M106.194 149.974C102.954 152.812 99.5927 154.618 96.1085 155.393C92.6611 156.136 89.2798 155.878 85.9648 154.618C82.6543 153.29 79.5481 150.969 76.6463 147.657C73.7444 144.344 71.869 140.978 71.0202 137.558C70.1759 134.069 70.3489 130.665 71.5394 127.345C72.7666 123.993 74.9998 120.899 78.2389 118.061C83.0977 113.805 88.1303 111.901 93.3368 112.35C98.5802 112.766 103.378 115.458 107.731 120.427C110.633 123.74 112.506 127.141 113.35 130.63C114.199 134.049 114.028 137.419 112.838 140.739C111.648 144.058 109.433 147.137 106.194 149.974ZM100.777 143.79C103.243 141.63 104.418 139.072 104.301 136.117C104.189 133.093 102.811 130.072 100.167 127.053C97.4907 123.998 94.6772 122.234 91.7262 121.762C88.8121 121.257 86.1219 122.085 83.6558 124.245C81.1528 126.438 79.9412 129.028 80.0211 132.015C80.1378 134.97 81.5343 137.976 84.2104 141.031C86.8543 144.049 89.6495 145.829 92.5959 146.37C95.5468 146.843 98.2738 145.983 100.777 143.79Z" fill="black"/>
<path d="M145.97 121.45C143.669 122.75 141.356 123.382 139.032 123.346C136.75 123.287 134.623 122.606 132.651 121.303C130.721 119.977 129.094 118.142 127.771 115.798L111.091 86.2733L117.563 77.1371L136.59 110.816C137.191 111.881 137.858 112.713 138.589 113.311C139.297 113.867 140.206 114.084 141.318 113.962C142.429 113.84 143.773 113.334 145.349 112.443L154.871 107.064L158.879 114.157L145.97 121.45ZM111.187 103.754L107.18 96.6603L132.806 82.1828L136.814 89.2765L111.187 103.754Z" fill="black"/>
<path d="M185.782 105.747C181.633 107.071 177.806 107.393 174.302 106.713C170.845 106.018 167.817 104.416 165.219 101.906C162.667 99.3811 160.729 96.0442 159.406 91.8951C158.053 87.6528 157.693 83.787 158.326 80.2978C158.991 76.7471 160.586 73.6959 163.111 71.1443C165.621 68.546 169.02 66.5629 173.309 65.1948C179.975 63.0683 185.419 63.3865 189.638 66.1495C193.905 68.8975 196.846 73.6093 198.462 80.2846L167.343 90.2107L165.202 83.4975L186.53 76.6943C185.704 74.7492 184.282 73.4308 182.264 72.7391C180.277 71.986 178.072 71.9961 175.648 72.7694C172.058 73.9144 169.735 75.8883 168.677 78.6911C167.666 81.479 167.837 84.9942 169.19 89.2365C169.904 91.4742 170.947 93.3757 172.319 94.9411C173.692 96.5064 175.295 97.5873 177.129 98.1837C179.009 98.7652 181.068 98.6991 183.306 97.9853C185.73 97.212 187.588 95.9517 188.88 94.2042C190.218 92.4419 190.769 90.5456 190.532 88.5152L200.112 85.4594C200.997 90.0051 200.171 94.0954 197.632 97.7301C195.093 101.365 191.143 104.037 185.782 105.747Z" fill="black"/>
<path d="M223.017 54.8971C225.499 54.6375 227.838 54.885 230.032 55.6395C232.27 56.3402 234.179 57.4198 235.758 58.8783L233.896 41.0658L243.824 40.0275L249.458 93.9029L239.895 94.903L239.195 90.3268C237.957 92.1291 236.32 93.6532 234.286 94.8992C232.295 96.0914 230.01 96.8224 227.43 97.0922C223.926 97.4586 220.715 96.8597 217.796 95.2953C214.872 93.6823 212.466 91.3755 210.578 88.375C208.684 85.3258 207.532 81.8301 207.119 77.888C206.702 73.8972 207.107 70.2387 208.333 66.9124C209.555 63.5375 211.431 60.7828 213.963 58.6484C216.495 56.514 219.513 55.2636 223.017 54.8971ZM229.042 88.5104C231.281 88.2763 233.183 87.4131 234.749 85.9209C236.358 84.375 237.435 82.442 237.98 80.1218L236.842 69.2445C235.825 67.0386 234.373 65.3945 232.489 64.3124C230.648 63.1765 228.609 62.7256 226.37 62.9597C224.326 63.1735 222.559 63.924 221.07 65.2114C219.576 66.45 218.493 68.0885 217.82 70.1269C217.143 72.1165 216.934 74.3524 217.194 76.8344C217.448 79.2678 218.115 81.4121 219.195 83.2672C220.269 85.0736 221.668 86.4525 223.391 87.4039C225.114 88.3553 226.998 88.7242 229.042 88.5104Z" fill="black"/>
<path d="M273.359 80.4907L273.872 53.1811L274.716 44.4874L286.478 45.6297L285.634 54.3234L280.883 81.2215L273.359 80.4907ZM269.691 95.4736L270.798 84.0768L282.56 85.2191L281.453 96.6159L269.691 95.4736Z" fill="black"/>
</g>
<defs>
<clipPath id="clip0_1517_2275">
<rect width="430" height="932" fill="white"/>
</clipPath>
</defs>
</svg>
