<svg width="401" height="651" viewBox="0 0 401 651" fill="none" xmlns="http://www.w3.org/2000/svg">
<path d="M105.91 182L107.73 157.57H112.595L115.71 172.025L116.445 176.785L117.215 172.025L120.26 157.57H125.055L126.91 182H123.235L122.43 166.705L122.29 161.315L121.24 166.705L117.915 182H114.765L111.475 166.705L110.495 161.245L110.285 166.705L109.515 182H105.91ZM137.284 182V157.57H140.994V182H137.284ZM131.159 157.57H147.084V160.72H131.159V157.57ZM131.159 178.85H147.084V182H131.159V178.85ZM152.872 182V157.57H157.492L167.677 177.17L167.397 169.61V157.57H170.967V182H166.382L156.127 162.61L156.442 169.925V182H152.872ZM182.811 182V157.57H186.521V182H182.811ZM176.686 157.57H192.611V160.72H176.686V157.57ZM176.686 178.85H192.611V182H176.686V178.85ZM196.965 182L198.785 157.57H203.65L206.765 172.025L207.5 176.785L208.27 172.025L211.315 157.57H216.11L217.965 182H214.29L213.485 166.705L213.345 161.315L212.295 166.705L208.97 182H205.82L202.53 166.705L201.55 161.245L201.34 166.705L200.57 182H196.965ZM223.613 175.84V172.69H237.158V175.84H223.613ZM227.533 157.57H232.853L240.413 182H236.598L231.663 165.83L230.193 160.475L228.723 165.865L223.718 182H219.973L227.533 157.57ZM245.432 182V157.57H249.142V178.85H261.952V182H245.432ZM273.866 182V157.57H277.576V182H273.866ZM267.741 157.57H283.666V160.72H267.741V157.57ZM267.741 178.85H283.666V182H267.741V178.85ZM298.834 182.42C296.944 182.42 295.299 182.058 293.899 181.335C292.499 180.612 291.414 179.573 290.644 178.22C289.874 176.867 289.489 175.222 289.489 173.285H293.164C293.164 175.198 293.666 176.68 294.669 177.73C295.673 178.757 297.049 179.27 298.799 179.27C300.293 179.27 301.494 178.932 302.404 178.255C303.314 177.555 303.769 176.587 303.769 175.35C303.769 174.51 303.513 173.833 302.999 173.32C302.509 172.807 301.844 172.387 301.004 172.06C300.188 171.733 299.289 171.442 298.309 171.185C297.329 170.928 296.338 170.648 295.334 170.345C294.354 170.018 293.444 169.61 292.604 169.12C291.788 168.63 291.123 167.977 290.609 167.16C290.119 166.343 289.874 165.305 289.874 164.045C289.874 162.715 290.224 161.537 290.924 160.51C291.648 159.46 292.639 158.643 293.899 158.06C295.183 157.453 296.688 157.15 298.414 157.15C300.094 157.15 301.599 157.465 302.929 158.095C304.259 158.702 305.321 159.577 306.114 160.72C306.931 161.84 307.351 163.193 307.374 164.78H303.664C303.641 163.847 303.384 163.053 302.894 162.4C302.428 161.723 301.798 161.21 301.004 160.86C300.234 160.487 299.371 160.3 298.414 160.3C297.038 160.3 295.918 160.627 295.054 161.28C294.191 161.933 293.759 162.82 293.759 163.94C293.759 164.733 294.004 165.363 294.494 165.83C295.008 166.297 295.673 166.682 296.489 166.985C297.329 167.265 298.239 167.533 299.219 167.79C300.223 168.023 301.214 168.303 302.194 168.63C303.174 168.933 304.073 169.353 304.889 169.89C305.729 170.403 306.394 171.103 306.884 171.99C307.398 172.853 307.654 173.962 307.654 175.315C307.654 176.762 307.269 178.022 306.499 179.095C305.729 180.145 304.679 180.962 303.349 181.545C302.019 182.128 300.514 182.42 298.834 182.42ZM319.393 182V160.72H311.518V157.57H330.978V160.72H323.103V182H319.393ZM342.157 182V157.57H345.867V182H342.157ZM336.032 157.57H351.957V160.72H336.032V157.57ZM336.032 178.85H351.957V182H336.032V178.85ZM367.195 182.42C365.049 182.42 363.182 181.883 361.595 180.81C360.032 179.713 358.819 178.22 357.955 176.33C357.115 174.417 356.695 172.223 356.695 169.75C356.695 167.183 357.139 164.955 358.025 163.065C358.912 161.175 360.149 159.717 361.735 158.69C363.345 157.663 365.212 157.15 367.335 157.15C369.039 157.15 370.579 157.488 371.955 158.165C373.355 158.818 374.487 159.775 375.35 161.035C376.237 162.272 376.75 163.753 376.89 165.48H372.83C372.644 163.917 372.06 162.668 371.08 161.735C370.1 160.778 368.84 160.3 367.3 160.3C365.97 160.3 364.792 160.685 363.765 161.455C362.762 162.202 361.98 163.287 361.42 164.71C360.86 166.133 360.58 167.825 360.58 169.785C360.58 171.745 360.86 173.437 361.42 174.86C362.004 176.283 362.797 177.38 363.8 178.15C364.804 178.897 365.935 179.27 367.195 179.27C368.292 179.27 369.249 179.048 370.065 178.605C370.882 178.138 371.535 177.497 372.025 176.68C372.539 175.863 372.842 174.907 372.935 173.81H377.03C376.867 175.537 376.365 177.053 375.525 178.36C374.685 179.643 373.554 180.647 372.13 181.37C370.73 182.07 369.085 182.42 367.195 182.42ZM107.345 242V217.57H111.965L122.15 237.17L121.87 229.61V217.57H125.44V242H120.855L110.6 222.61L110.915 229.925V242H107.345ZM139.174 242.42C137.097 242.42 135.289 241.907 133.749 240.88C132.209 239.83 131.007 238.36 130.144 236.47C129.304 234.58 128.884 232.352 128.884 229.785C128.884 227.195 129.304 224.955 130.144 223.065C131.007 221.175 132.209 219.717 133.749 218.69C135.289 217.663 137.097 217.15 139.174 217.15C141.25 217.15 143.059 217.663 144.599 218.69C146.139 219.717 147.329 221.175 148.169 223.065C149.032 224.955 149.464 227.195 149.464 229.785C149.464 232.352 149.032 234.58 148.169 236.47C147.329 238.36 146.139 239.83 144.599 240.88C143.059 241.907 141.25 242.42 139.174 242.42ZM139.174 239.27C140.457 239.27 141.577 238.885 142.534 238.115C143.49 237.345 144.237 236.248 144.774 234.825C145.31 233.402 145.579 231.722 145.579 229.785C145.579 227.825 145.31 226.145 144.774 224.745C144.237 223.322 143.49 222.225 142.534 221.455C141.577 220.685 140.457 220.3 139.174 220.3C137.914 220.3 136.794 220.685 135.814 221.455C134.857 222.225 134.11 223.322 133.574 224.745C133.037 226.168 132.769 227.848 132.769 229.785C132.769 231.722 133.037 233.402 133.574 234.825C134.11 236.248 134.857 237.345 135.814 238.115C136.794 238.885 137.914 239.27 139.174 239.27ZM160.047 242V220.72H152.172V217.57H171.632V220.72H163.757V242H160.047ZM176.196 242V217.57H193.731V220.72H179.906V227.755H189.426V230.905H179.906V238.85H193.871V242H176.196ZM228.338 242V220.72H220.463V217.57H239.923V220.72H232.048V242H228.338ZM246.377 235.84V232.69H259.922V235.84H246.377ZM250.297 217.57H255.617L263.177 242H259.362L254.427 225.83L252.957 220.475L251.487 225.865L246.482 242H242.737L250.297 217.57ZM267.111 242V217.57H270.821V223.87L270.576 228.56L274.076 224.57L280.691 217.57H285.311L270.821 233.32V242H267.111ZM281.706 242L272.641 228.315L275.756 226.39L286.151 242H281.706ZM296.629 242V217.57H300.339V242H296.629ZM290.504 217.57H306.429V220.72H290.504V217.57ZM290.504 238.85H306.429V242H290.504V238.85ZM312.218 242V217.57H316.838L327.023 237.17L326.743 229.61V217.57H330.313V242H325.728L315.473 222.61L315.788 229.925V242H312.218ZM344.502 242.42C342.332 242.42 340.442 241.895 338.832 240.845C337.222 239.795 335.962 238.325 335.052 236.435C334.165 234.545 333.722 232.328 333.722 229.785C333.722 227.265 334.177 225.06 335.087 223.17C335.997 221.28 337.268 219.81 338.902 218.76C340.535 217.687 342.437 217.15 344.607 217.15C346.287 217.15 347.792 217.477 349.122 218.13C350.475 218.783 351.572 219.728 352.412 220.965C353.252 222.202 353.742 223.695 353.882 225.445H349.787C349.6 223.882 349.04 222.633 348.107 221.7C347.197 220.767 346.007 220.3 344.537 220.3C343.23 220.3 342.052 220.685 341.002 221.455C339.975 222.202 339.158 223.287 338.552 224.71C337.945 226.11 337.642 227.802 337.642 229.785C337.642 231.815 337.945 233.542 338.552 234.965C339.182 236.365 340.033 237.438 341.107 238.185C342.203 238.908 343.428 239.27 344.782 239.27C345.972 239.27 347.022 239.06 347.932 238.64C348.842 238.197 349.6 237.637 350.207 236.96V232.13L345.937 232.27L346.077 229.085H353.882V238.045C352.925 239.422 351.63 240.495 349.997 241.265C348.387 242.035 346.555 242.42 344.502 242.42ZM109.795 295.84V292.69H123.34V295.84H109.795ZM113.715 277.57H119.035L126.595 302H122.78L117.845 285.83L116.375 280.475L114.905 285.865L109.9 302H106.155L113.715 277.57ZM133.259 293.075V289.925H139.629C141.192 289.925 142.452 289.493 143.409 288.63C144.365 287.767 144.844 286.635 144.844 285.235C144.844 283.882 144.4 282.797 143.514 281.98C142.627 281.14 141.449 280.72 139.979 280.72H133.259V277.57H139.979C141.752 277.57 143.292 277.885 144.599 278.515C145.905 279.145 146.92 280.032 147.644 281.175C148.367 282.318 148.729 283.672 148.729 285.235C148.729 286.798 148.355 288.175 147.609 289.365C146.862 290.532 145.8 291.442 144.424 292.095C143.07 292.748 141.484 293.075 139.664 293.075H133.259ZM130.599 302V277.57H134.309V302H130.599ZM156.022 293.075V289.925H162.392C163.956 289.925 165.216 289.493 166.172 288.63C167.129 287.767 167.607 286.635 167.607 285.235C167.607 283.882 167.164 282.797 166.277 281.98C165.391 281.14 164.212 280.72 162.742 280.72H156.022V277.57H162.742C164.516 277.57 166.056 277.885 167.362 278.515C168.669 279.145 169.684 280.032 170.407 281.175C171.131 282.318 171.492 283.672 171.492 285.235C171.492 286.798 171.119 288.175 170.372 289.365C169.626 290.532 168.564 291.442 167.187 292.095C165.834 292.748 164.247 293.075 162.427 293.075H156.022ZM153.362 302V277.57H157.072V302H153.362ZM177.141 302V277.57H180.851V298.85H193.661V302H177.141ZM205.575 302V277.57H209.285V302H205.575ZM199.45 277.57H215.375V280.72H199.45V277.57ZM199.45 298.85H215.375V302H199.45V298.85ZM230.613 302.42C228.467 302.42 226.6 301.883 225.013 300.81C223.45 299.713 222.237 298.22 221.373 296.33C220.533 294.417 220.113 292.223 220.113 289.75C220.113 287.183 220.557 284.955 221.443 283.065C222.33 281.175 223.567 279.717 225.153 278.69C226.763 277.663 228.63 277.15 230.753 277.15C232.457 277.15 233.997 277.488 235.373 278.165C236.773 278.818 237.905 279.775 238.768 281.035C239.655 282.272 240.168 283.753 240.308 285.48H236.248C236.062 283.917 235.478 282.668 234.498 281.735C233.518 280.778 232.258 280.3 230.718 280.3C229.388 280.3 228.21 280.685 227.183 281.455C226.18 282.202 225.398 283.287 224.838 284.71C224.278 286.133 223.998 287.825 223.998 289.785C223.998 291.745 224.278 293.437 224.838 294.86C225.422 296.283 226.215 297.38 227.218 298.15C228.222 298.897 229.353 299.27 230.613 299.27C231.71 299.27 232.667 299.048 233.483 298.605C234.3 298.138 234.953 297.497 235.443 296.68C235.957 295.863 236.26 294.907 236.353 293.81H240.448C240.285 295.537 239.783 297.053 238.943 298.36C238.103 299.643 236.972 300.647 235.548 301.37C234.148 302.07 232.503 302.42 230.613 302.42ZM246.377 295.84V292.69H259.922V295.84H246.377ZM250.297 277.57H255.617L263.177 302H259.362L254.427 285.83L252.957 280.475L251.487 285.865L246.482 302H242.737L250.297 277.57ZM273.866 302V280.72H265.991V277.57H285.451V280.72H277.576V302H273.866ZM296.629 302V277.57H300.339V302H296.629ZM290.504 277.57H306.429V280.72H290.504V277.57ZM290.504 298.85H306.429V302H290.504V298.85ZM321.283 302.42C319.206 302.42 317.398 301.907 315.858 300.88C314.318 299.83 313.116 298.36 312.253 296.47C311.413 294.58 310.993 292.352 310.993 289.785C310.993 287.195 311.413 284.955 312.253 283.065C313.116 281.175 314.318 279.717 315.858 278.69C317.398 277.663 319.206 277.15 321.283 277.15C323.36 277.15 325.168 277.663 326.708 278.69C328.248 279.717 329.438 281.175 330.278 283.065C331.141 284.955 331.573 287.195 331.573 289.785C331.573 292.352 331.141 294.58 330.278 296.47C329.438 298.36 328.248 299.83 326.708 300.88C325.168 301.907 323.36 302.42 321.283 302.42ZM321.283 299.27C322.566 299.27 323.686 298.885 324.643 298.115C325.6 297.345 326.346 296.248 326.883 294.825C327.42 293.402 327.688 291.722 327.688 289.785C327.688 287.825 327.42 286.145 326.883 284.745C326.346 283.322 325.6 282.225 324.643 281.455C323.686 280.685 322.566 280.3 321.283 280.3C320.023 280.3 318.903 280.685 317.923 281.455C316.966 282.225 316.22 283.322 315.683 284.745C315.146 286.168 314.878 287.848 314.878 289.785C314.878 291.722 315.146 293.402 315.683 294.825C316.22 296.248 316.966 297.345 317.923 298.115C318.903 298.885 320.023 299.27 321.283 299.27ZM334.982 302V277.57H339.602L349.787 297.17L349.507 289.61V277.57H353.077V302H348.492L338.237 282.61L338.552 289.925V302H334.982Z" fill="black"/>
<path d="M9.38 545.336C7.868 545.336 6.552 545.047 5.432 544.468C4.312 543.889 3.444 543.059 2.828 541.976C2.212 540.893 1.904 539.577 1.904 538.028H4.844C4.844 539.559 5.24533 540.744 6.048 541.584C6.85067 542.405 7.952 542.816 9.352 542.816C10.5467 542.816 11.508 542.545 12.236 542.004C12.964 541.444 13.328 540.669 13.328 539.68C13.328 539.008 13.1227 538.467 12.712 538.056C12.32 537.645 11.788 537.309 11.116 537.048C10.4627 536.787 9.744 536.553 8.96 536.348C8.176 536.143 7.38267 535.919 6.58 535.676C5.796 535.415 5.068 535.088 4.396 534.696C3.74267 534.304 3.21067 533.781 2.8 533.128C2.408 532.475 2.212 531.644 2.212 530.636C2.212 529.572 2.492 528.629 3.052 527.808C3.63067 526.968 4.424 526.315 5.432 525.848C6.45867 525.363 7.66267 525.12 9.044 525.12C10.388 525.12 11.592 525.372 12.656 525.876C13.72 526.361 14.5693 527.061 15.204 527.976C15.8573 528.872 16.1933 529.955 16.212 531.224H13.244C13.2253 530.477 13.02 529.843 12.628 529.32C12.2547 528.779 11.7507 528.368 11.116 528.088C10.5 527.789 9.80933 527.64 9.044 527.64C7.94267 527.64 7.04667 527.901 6.356 528.424C5.66533 528.947 5.32 529.656 5.32 530.552C5.32 531.187 5.516 531.691 5.908 532.064C6.31867 532.437 6.85067 532.745 7.504 532.988C8.176 533.212 8.904 533.427 9.688 533.632C10.4907 533.819 11.284 534.043 12.068 534.304C12.852 534.547 13.5707 534.883 14.224 535.312C14.896 535.723 15.428 536.283 15.82 536.992C16.2307 537.683 16.436 538.569 16.436 539.652C16.436 540.809 16.128 541.817 15.512 542.676C14.896 543.516 14.056 544.169 12.992 544.636C11.928 545.103 10.724 545.336 9.38 545.336ZM31.3429 545L31.2309 541.5V534.92C31.2309 533.819 30.8669 532.96 30.1389 532.344C29.4296 531.709 28.4496 531.392 27.1989 531.392C25.9856 531.392 24.9963 531.672 24.2309 532.232C23.4656 532.773 23.0456 533.529 22.9709 534.5H20.1989C20.2923 533.399 20.6469 532.465 21.2629 531.7C21.8789 530.916 22.7003 530.319 23.7269 529.908C24.7536 529.479 25.9389 529.264 27.2829 529.264C28.6643 529.264 29.8589 529.497 30.8669 529.964C31.8749 530.412 32.6496 531.065 33.1909 531.924C33.7509 532.783 34.0309 533.828 34.0309 535.06V545H31.3429ZM25.7709 545.336C24.7629 545.336 23.8763 545.159 23.1109 544.804C22.3456 544.431 21.7483 543.908 21.3189 543.236C20.8896 542.545 20.6749 541.743 20.6749 540.828C20.6749 539.241 21.2816 538.009 22.4949 537.132C23.7269 536.255 25.4443 535.816 27.6469 535.816H31.5949V537.916H27.5349C26.2656 537.916 25.2669 538.159 24.5389 538.644C23.8296 539.129 23.4749 539.811 23.4749 540.688C23.4749 541.416 23.7269 541.985 24.2309 542.396C24.7536 542.807 25.4536 543.012 26.3309 543.012C27.4509 543.012 28.4403 542.713 29.2989 542.116C30.1763 541.5 30.8856 540.66 31.4269 539.596L31.7349 541.668C31.2496 542.844 30.5029 543.749 29.4949 544.384C28.4869 545.019 27.2456 545.336 25.7709 545.336ZM43.9259 545L37.9059 529.6H40.9019L44.4579 538.868L45.5499 542.396L46.6699 538.868L50.2259 529.6H53.1099L47.1179 545H43.9259ZM63.9008 545.336C62.3141 545.336 60.9421 545.019 59.7848 544.384C58.6275 543.731 57.7408 542.807 57.1248 541.612C56.5088 540.399 56.2008 538.952 56.2008 537.272C56.2008 535.592 56.5088 534.155 57.1248 532.96C57.7595 531.765 58.6555 530.851 59.8128 530.216C60.9888 529.581 62.3888 529.264 64.0128 529.264C66.4955 529.264 68.3435 529.955 69.5568 531.336C70.7701 532.699 71.3021 534.575 71.1528 536.964H58.4408L58.4688 534.836L68.2688 534.864C68.1941 533.875 67.7648 533.081 66.9808 532.484C66.1968 531.887 65.2075 531.588 64.0128 531.588C62.4075 531.588 61.1755 532.092 60.3168 533.1C59.4581 534.108 59.0288 535.536 59.0288 537.384C59.0288 538.485 59.2155 539.465 59.5888 540.324C59.9808 541.164 60.5408 541.817 61.2688 542.284C61.9968 542.751 62.8741 542.984 63.9008 542.984C65.1141 542.984 66.1221 542.695 66.9248 542.116C67.7461 541.537 68.2501 540.753 68.4368 539.764H71.2648C71.0221 541.5 70.2475 542.863 68.9408 543.852C67.6341 544.841 65.9541 545.336 63.9008 545.336ZM80.1798 545V541.556H83.6518V545L81.7198 549.956H79.1998L80.1238 548.304L82.1398 544.972L80.1798 545ZM111.59 545V525.456H125.618V527.976H114.558V533.604H122.174V536.124H114.558V542.48H125.73V545H111.59ZM135.765 529.264C136.829 529.264 137.799 529.479 138.677 529.908C139.554 530.319 140.263 530.897 140.805 531.644V524.42H143.605V545H140.945L140.861 542.844C140.319 543.591 139.601 544.197 138.705 544.664C137.827 545.112 136.847 545.336 135.765 545.336C134.402 545.336 133.198 544.991 132.153 544.3C131.107 543.609 130.286 542.657 129.689 541.444C129.11 540.231 128.821 538.849 128.821 537.3C128.821 535.732 129.11 534.341 129.689 533.128C130.286 531.915 131.107 530.972 132.153 530.3C133.198 529.609 134.402 529.264 135.765 529.264ZM136.381 542.956C137.389 542.956 138.285 542.676 139.069 542.116C139.853 541.537 140.431 540.763 140.805 539.792V534.78C140.431 533.791 139.853 533.025 139.069 532.484C138.285 531.924 137.389 531.644 136.381 531.644C135.447 531.644 134.626 531.887 133.917 532.372C133.207 532.839 132.647 533.501 132.237 534.36C131.845 535.2 131.649 536.18 131.649 537.3C131.649 538.401 131.845 539.381 132.237 540.24C132.647 541.08 133.207 541.743 133.917 542.228C134.626 542.713 135.447 542.956 136.381 542.956ZM153.528 545V529.6H156.356V545H153.528ZM147.844 545V542.704H161.648V545H147.844ZM149.888 531.896V529.6H154.928V531.896H149.888ZM153.332 526.968V523.916H156.496V526.968H153.332ZM174.258 545C173.306 545 172.494 544.813 171.822 544.44C171.15 544.048 170.646 543.497 170.31 542.788C169.974 542.079 169.806 541.248 169.806 540.296V526.688L172.634 525.148V540.296C172.634 540.744 172.7 541.155 172.83 541.528C172.961 541.901 173.213 542.191 173.586 542.396C173.978 542.601 174.548 542.704 175.294 542.704H179.914V545H174.258ZM166.166 531.896V529.6H177.45V531.896H166.166ZM213.452 545L213.34 541.5V534.92C213.34 533.819 212.976 532.96 212.248 532.344C211.539 531.709 210.559 531.392 209.308 531.392C208.095 531.392 207.106 531.672 206.34 532.232C205.575 532.773 205.155 533.529 205.08 534.5H202.308C202.402 533.399 202.756 532.465 203.372 531.7C203.988 530.916 204.81 530.319 205.836 529.908C206.863 529.479 208.048 529.264 209.392 529.264C210.774 529.264 211.968 529.497 212.976 529.964C213.984 530.412 214.759 531.065 215.3 531.924C215.86 532.783 216.14 533.828 216.14 535.06V545H213.452ZM207.88 545.336C206.872 545.336 205.986 545.159 205.22 544.804C204.455 544.431 203.858 543.908 203.428 543.236C202.999 542.545 202.784 541.743 202.784 540.828C202.784 539.241 203.391 538.009 204.604 537.132C205.836 536.255 207.554 535.816 209.756 535.816H213.704V537.916H209.644C208.375 537.916 207.376 538.159 206.648 538.644C205.939 539.129 205.584 539.811 205.584 540.688C205.584 541.416 205.836 541.985 206.34 542.396C206.863 542.807 207.563 543.012 208.44 543.012C209.56 543.012 210.55 542.713 211.408 542.116C212.286 541.5 212.995 540.66 213.536 539.596L213.844 541.668C213.359 542.844 212.612 543.749 211.604 544.384C210.596 545.019 209.355 545.336 207.88 545.336ZM231.775 545V535.284C231.775 534.201 231.467 533.333 230.851 532.68C230.235 532.008 229.433 531.672 228.443 531.672C227.305 531.672 226.287 532.092 225.391 532.932C224.514 533.753 223.814 535.041 223.291 536.796L222.843 533.632C223.422 532.176 224.253 531.084 225.335 530.356C226.437 529.628 227.631 529.264 228.919 529.264C230.077 529.264 231.075 529.516 231.915 530.02C232.774 530.505 233.437 531.187 233.903 532.064C234.37 532.941 234.603 533.977 234.603 535.172V545H231.775ZM220.799 545V529.6H223.487L223.627 533.072V545H220.799ZM245.03 529.264C246.094 529.264 247.065 529.479 247.942 529.908C248.82 530.319 249.529 530.897 250.07 531.644V524.42H252.87V545H250.21L250.126 542.844C249.585 543.591 248.866 544.197 247.97 544.664C247.093 545.112 246.113 545.336 245.03 545.336C243.668 545.336 242.464 544.991 241.418 544.3C240.373 543.609 239.552 542.657 238.954 541.444C238.376 540.231 238.086 538.849 238.086 537.3C238.086 535.732 238.376 534.341 238.954 533.128C239.552 531.915 240.373 530.972 241.418 530.3C242.464 529.609 243.668 529.264 245.03 529.264ZM245.646 542.956C246.654 542.956 247.55 542.676 248.334 542.116C249.118 541.537 249.697 540.763 250.07 539.792V534.78C249.697 533.791 249.118 533.025 248.334 532.484C247.55 531.924 246.654 531.644 245.646 531.644C244.713 531.644 243.892 531.887 243.182 532.372C242.473 532.839 241.913 533.501 241.502 534.36C241.11 535.2 240.914 536.18 240.914 537.3C240.914 538.401 241.11 539.381 241.502 540.24C241.913 541.08 242.473 541.743 243.182 542.228C243.892 542.713 244.713 542.956 245.646 542.956ZM273.892 545L275.348 525.456H279.24L281.732 537.02L282.32 540.828L282.936 537.02L285.372 525.456H289.208L290.692 545H287.752L287.108 532.764L286.996 528.452L286.156 532.764L283.496 545H280.976L278.344 532.764L277.56 528.396L277.392 532.764L276.776 545H273.892ZM304.507 545L304.395 541.5V534.92C304.395 533.819 304.031 532.96 303.303 532.344C302.594 531.709 301.614 531.392 300.363 531.392C299.15 531.392 298.16 531.672 297.395 532.232C296.63 532.773 296.21 533.529 296.135 534.5H293.363C293.456 533.399 293.811 532.465 294.427 531.7C295.043 530.916 295.864 530.319 296.891 529.908C297.918 529.479 299.103 529.264 300.447 529.264C301.828 529.264 303.023 529.497 304.031 529.964C305.039 530.412 305.814 531.065 306.355 531.924C306.915 532.783 307.195 533.828 307.195 535.06V545H304.507ZM298.935 545.336C297.927 545.336 297.04 545.159 296.275 544.804C295.51 544.431 294.912 543.908 294.483 543.236C294.054 542.545 293.839 541.743 293.839 540.828C293.839 539.241 294.446 538.009 295.659 537.132C296.891 536.255 298.608 535.816 300.811 535.816H304.759V537.916H300.699C299.43 537.916 298.431 538.159 297.703 538.644C296.994 539.129 296.639 539.811 296.639 540.688C296.639 541.416 296.891 541.985 297.395 542.396C297.918 542.807 298.618 543.012 299.495 543.012C300.615 543.012 301.604 542.713 302.463 542.116C303.34 541.5 304.05 540.66 304.591 539.596L304.899 541.668C304.414 542.844 303.667 543.749 302.659 544.384C301.651 545.019 300.41 545.336 298.935 545.336ZM322.83 545V535.284C322.83 534.201 322.522 533.333 321.906 532.68C321.29 532.008 320.487 531.672 319.498 531.672C318.359 531.672 317.342 532.092 316.446 532.932C315.569 533.753 314.869 535.041 314.346 536.796L313.898 533.632C314.477 532.176 315.307 531.084 316.39 530.356C317.491 529.628 318.686 529.264 319.974 529.264C321.131 529.264 322.13 529.516 322.97 530.02C323.829 530.505 324.491 531.187 324.958 532.064C325.425 532.941 325.658 533.977 325.658 535.172V545H322.83ZM311.854 545V529.6H314.542L314.682 533.072V545H311.854ZM340.929 545L340.817 541.5V534.92C340.817 533.819 340.453 532.96 339.725 532.344C339.016 531.709 338.036 531.392 336.785 531.392C335.572 531.392 334.582 531.672 333.817 532.232C333.052 532.773 332.632 533.529 332.557 534.5H329.785C329.878 533.399 330.233 532.465 330.849 531.7C331.465 530.916 332.286 530.319 333.313 529.908C334.34 529.479 335.525 529.264 336.869 529.264C338.25 529.264 339.445 529.497 340.453 529.964C341.461 530.412 342.236 531.065 342.777 531.924C343.337 532.783 343.617 533.828 343.617 535.06V545H340.929ZM335.357 545.336C334.349 545.336 333.462 545.159 332.697 544.804C331.932 544.431 331.334 543.908 330.905 543.236C330.476 542.545 330.261 541.743 330.261 540.828C330.261 539.241 330.868 538.009 332.081 537.132C333.313 536.255 335.03 535.816 337.233 535.816H341.181V537.916H337.121C335.852 537.916 334.853 538.159 334.125 538.644C333.416 539.129 333.061 539.811 333.061 540.688C333.061 541.416 333.313 541.985 333.817 542.396C334.34 542.807 335.04 543.012 335.917 543.012C337.037 543.012 338.026 542.713 338.885 542.116C339.762 541.5 340.472 540.66 341.013 539.596L341.321 541.668C340.836 542.844 340.089 543.749 339.081 544.384C338.073 545.019 336.832 545.336 335.357 545.336ZM359.392 531.812L359.476 529.6H362.136V543.32C362.136 545.597 361.52 547.333 360.288 548.528C359.074 549.723 357.236 550.32 354.772 550.32C353.409 550.32 352.224 550.133 351.216 549.76C350.226 549.387 349.442 548.827 348.864 548.08C348.304 547.352 347.986 546.437 347.912 545.336H350.852C350.945 546.176 351.318 546.82 351.972 547.268C352.644 547.735 353.624 547.968 354.912 547.968C356.368 547.968 357.46 547.595 358.188 546.848C358.934 546.101 359.308 545.037 359.308 543.656V541.612C358.785 542.396 358.085 543.012 357.208 543.46C356.349 543.908 355.388 544.132 354.324 544.132C352.998 544.132 351.822 543.815 350.796 543.18C349.788 542.545 348.994 541.668 348.416 540.548C347.837 539.409 347.548 538.131 347.548 536.712C347.548 535.181 347.846 533.865 348.444 532.764C349.041 531.644 349.862 530.785 350.908 530.188C351.953 529.572 353.138 529.264 354.464 529.264C355.528 529.264 356.489 529.497 357.348 529.964C358.206 530.431 358.888 531.047 359.392 531.812ZM354.94 541.92C355.948 541.92 356.844 541.631 357.628 541.052C358.43 540.455 358.99 539.652 359.308 538.644V534.752C358.99 533.744 358.43 532.951 357.628 532.372C356.844 531.775 355.948 531.476 354.94 531.476C354.025 531.476 353.222 531.7 352.532 532.148C351.86 532.596 351.328 533.212 350.936 533.996C350.562 534.761 350.376 535.657 350.376 536.684C350.376 537.692 350.562 538.597 350.936 539.4C351.328 540.184 351.86 540.8 352.532 541.248C353.222 541.696 354.025 541.92 354.94 541.92ZM373.487 545.336C371.9 545.336 370.528 545.019 369.371 544.384C368.213 543.731 367.327 542.807 366.711 541.612C366.095 540.399 365.787 538.952 365.787 537.272C365.787 535.592 366.095 534.155 366.711 532.96C367.345 531.765 368.241 530.851 369.399 530.216C370.575 529.581 371.975 529.264 373.599 529.264C376.081 529.264 377.929 529.955 379.143 531.336C380.356 532.699 380.888 534.575 380.739 536.964H368.027L368.055 534.836L377.855 534.864C377.78 533.875 377.351 533.081 376.567 532.484C375.783 531.887 374.793 531.588 373.599 531.588C371.993 531.588 370.761 532.092 369.903 533.1C369.044 534.108 368.615 535.536 368.615 537.384C368.615 538.485 368.801 539.465 369.175 540.324C369.567 541.164 370.127 541.817 370.855 542.284C371.583 542.751 372.46 542.984 373.487 542.984C374.7 542.984 375.708 542.695 376.511 542.116C377.332 541.537 377.836 540.753 378.023 539.764H380.851C380.608 541.5 379.833 542.863 378.527 543.852C377.22 544.841 375.54 545.336 373.487 545.336ZM7.672 570.216L9.128 574.052L10.584 570.188L13.804 562.6H16.744L9.604 579.428C9.17467 580.417 8.708 581.192 8.204 581.752C7.71867 582.331 7.168 582.732 6.552 582.956C5.936 583.199 5.21733 583.32 4.396 583.32H1.652V581.024H4.2C4.68533 581.024 5.096 580.912 5.432 580.688C5.78667 580.483 6.104 580.165 6.384 579.736C6.664 579.325 6.944 578.784 7.224 578.112L7.644 577.104L1.512 562.6H4.452L7.672 570.216ZM27.2829 578.336C25.6963 578.336 24.3243 578.009 23.1669 577.356C22.0283 576.703 21.1509 575.779 20.5349 574.584C19.9189 573.371 19.6109 571.943 19.6109 570.3C19.6109 568.62 19.9189 567.192 20.5349 566.016C21.1509 564.821 22.0283 563.897 23.1669 563.244C24.3243 562.591 25.7056 562.264 27.3109 562.264C29.7003 562.264 31.5763 562.983 32.9389 564.42C34.3016 565.839 34.9829 567.799 34.9829 570.3C34.9829 571.943 34.6749 573.371 34.0589 574.584C33.4429 575.779 32.5563 576.703 31.3989 577.356C30.2603 578.009 28.8883 578.336 27.2829 578.336ZM27.3109 575.984C28.8043 575.984 29.9803 575.48 30.8389 574.472C31.7163 573.445 32.1549 572.055 32.1549 570.3C32.1549 568.527 31.7163 567.136 30.8389 566.128C29.9803 565.12 28.8043 564.616 27.3109 564.616C25.7989 564.616 24.6136 565.12 23.7549 566.128C22.8963 567.136 22.4669 568.527 22.4669 570.3C22.4669 572.055 22.8963 573.445 23.7549 574.472C24.6136 575.48 25.7989 575.984 27.3109 575.984ZM41.2379 562.6V572.316C41.2379 573.399 41.5459 574.276 42.1619 574.948C42.7779 575.601 43.5805 575.928 44.5699 575.928C45.7085 575.928 46.7165 575.517 47.5939 574.696C48.4899 573.856 49.1992 572.559 49.7219 570.804L50.1699 573.968C49.5912 575.424 48.7512 576.516 47.6499 577.244C46.5672 577.972 45.3819 578.336 44.0939 578.336C42.9365 578.336 41.9285 578.093 41.0699 577.608C40.2299 577.104 39.5765 576.413 39.1099 575.536C38.6432 574.659 38.4099 573.623 38.4099 572.428V562.6H41.2379ZM52.2139 562.6V578H49.5259L49.3859 574.528V562.6H52.2139ZM67.9328 569.208V567.36C67.9328 566.557 67.6901 565.913 67.2048 565.428C66.7195 564.924 66.0195 564.672 65.1048 564.672C63.9475 564.672 62.9115 565.111 61.9968 565.988C61.0821 566.847 60.3541 568.163 59.8128 569.936L59.4208 567.08C59.8315 566.016 60.3261 565.129 60.9048 564.42C61.5021 563.711 62.1835 563.179 62.9488 562.824C63.7328 562.451 64.5915 562.264 65.5248 562.264C67.0741 562.264 68.3341 562.712 69.3048 563.608C70.2755 564.485 70.7608 565.736 70.7608 567.36V569.208H67.9328ZM57.5168 578V562.6H60.1768L60.3448 566.1V578H57.5168ZM104.299 578V568.284C104.299 567.201 103.991 566.333 103.375 565.68C102.759 565.008 101.956 564.672 100.967 564.672C99.828 564.672 98.8107 565.092 97.9147 565.932C97.0374 566.753 96.3374 568.041 95.8147 569.796L95.3667 566.632C95.9454 565.176 96.776 564.084 97.8587 563.356C98.96 562.628 100.155 562.264 101.443 562.264C102.6 562.264 103.599 562.516 104.439 563.02C105.297 563.505 105.96 564.187 106.427 565.064C106.893 565.941 107.127 566.977 107.127 568.172V578H104.299ZM93.3227 578V562.6H96.0107L96.1507 566.072V578H93.3227ZM118.338 578.336C116.751 578.336 115.379 578.009 114.222 577.356C113.083 576.703 112.206 575.779 111.59 574.584C110.974 573.371 110.666 571.943 110.666 570.3C110.666 568.62 110.974 567.192 111.59 566.016C112.206 564.821 113.083 563.897 114.222 563.244C115.379 562.591 116.76 562.264 118.366 562.264C120.755 562.264 122.631 562.983 123.994 564.42C125.356 565.839 126.038 567.799 126.038 570.3C126.038 571.943 125.73 573.371 125.114 574.584C124.498 575.779 123.611 576.703 122.454 577.356C121.315 578.009 119.943 578.336 118.338 578.336ZM118.366 575.984C119.859 575.984 121.035 575.48 121.894 574.472C122.771 573.445 123.21 572.055 123.21 570.3C123.21 568.527 122.771 567.136 121.894 566.128C121.035 565.12 119.859 564.616 118.366 564.616C116.854 564.616 115.668 565.12 114.81 566.128C113.951 567.136 113.522 568.527 113.522 570.3C113.522 572.055 113.951 573.445 114.81 574.472C115.668 575.48 116.854 575.984 118.366 575.984ZM137.837 578C136.885 578 136.073 577.813 135.401 577.44C134.729 577.048 134.225 576.497 133.889 575.788C133.553 575.079 133.385 574.248 133.385 573.296V559.688L136.213 558.148V573.296C136.213 573.744 136.278 574.155 136.409 574.528C136.539 574.901 136.791 575.191 137.165 575.396C137.557 575.601 138.126 575.704 138.873 575.704H143.493V578H137.837ZM129.745 564.896V562.6H141.029V564.896H129.745ZM154.956 578.336C153.369 578.336 151.997 578.019 150.84 577.384C149.682 576.731 148.796 575.807 148.18 574.612C147.564 573.399 147.256 571.952 147.256 570.272C147.256 568.592 147.564 567.155 148.18 565.96C148.814 564.765 149.71 563.851 150.868 563.216C152.044 562.581 153.444 562.264 155.068 562.264C157.55 562.264 159.398 562.955 160.612 564.336C161.825 565.699 162.357 567.575 162.208 569.964H149.496L149.524 567.836L159.324 567.864C159.249 566.875 158.82 566.081 158.036 565.484C157.252 564.887 156.262 564.588 155.068 564.588C153.462 564.588 152.23 565.092 151.372 566.1C150.513 567.108 150.084 568.536 150.084 570.384C150.084 571.485 150.27 572.465 150.644 573.324C151.036 574.164 151.596 574.817 152.324 575.284C153.052 575.751 153.929 575.984 154.956 575.984C156.169 575.984 157.177 575.695 157.98 575.116C158.801 574.537 159.305 573.753 159.492 572.764H162.32C162.077 574.5 161.302 575.863 159.996 576.852C158.689 577.841 157.009 578.336 154.956 578.336ZM173.418 578.336C172.056 578.336 170.852 578.103 169.806 577.636C168.78 577.151 167.986 576.479 167.426 575.62C166.866 574.743 166.577 573.697 166.558 572.484H169.218C169.218 573.623 169.601 574.519 170.366 575.172C171.132 575.825 172.14 576.152 173.39 576.152C174.454 576.152 175.304 575.956 175.938 575.564C176.592 575.153 176.918 574.603 176.918 573.912C176.918 573.371 176.732 572.941 176.358 572.624C176.004 572.288 175.528 572.027 174.93 571.84C174.333 571.653 173.67 571.495 172.942 571.364C172.233 571.215 171.514 571.047 170.786 570.86C170.077 570.655 169.424 570.403 168.826 570.104C168.229 569.787 167.744 569.367 167.37 568.844C166.997 568.321 166.81 567.64 166.81 566.8C166.81 565.923 167.062 565.148 167.566 564.476C168.07 563.785 168.78 563.244 169.694 562.852C170.628 562.46 171.729 562.264 172.998 562.264C174.921 562.264 176.461 562.712 177.618 563.608C178.794 564.485 179.429 565.699 179.522 567.248H176.862C176.806 566.352 176.433 565.661 175.742 565.176C175.07 564.672 174.156 564.42 172.998 564.42C171.916 564.42 171.085 564.635 170.506 565.064C169.946 565.493 169.666 566.035 169.666 566.688C169.666 567.192 169.853 567.593 170.226 567.892C170.6 568.172 171.085 568.396 171.682 568.564C172.28 568.713 172.933 568.853 173.642 568.984C174.37 569.096 175.089 569.245 175.798 569.432C176.526 569.619 177.189 569.88 177.786 570.216C178.384 570.533 178.86 570.972 179.214 571.532C179.588 572.092 179.774 572.82 179.774 573.716C179.774 575.153 179.196 576.283 178.038 577.104C176.881 577.925 175.341 578.336 173.418 578.336ZM203.456 578L200.908 562.544H203.54L204.884 571.28L205.444 575.032L206.228 571.28L208.188 562.544H210.736L212.78 571.28L213.564 575.06L214.096 571.28L215.44 562.544H217.988L215.44 578H212.108L210.092 569.544L209.448 565.372L208.804 569.544L206.788 578H203.456ZM226.371 578V562.6H229.199V578H226.371ZM220.687 578V575.704H234.491V578H220.687ZM222.731 564.896V562.6H227.771V564.896H222.731ZM226.175 559.968V556.916H229.339V559.968H226.175ZM247.102 578C246.15 578 245.338 577.813 244.666 577.44C243.994 577.048 243.49 576.497 243.154 575.788C242.818 575.079 242.65 574.248 242.65 573.296V559.688L245.478 558.148V573.296C245.478 573.744 245.544 574.155 245.674 574.528C245.805 574.901 246.057 575.191 246.43 575.396C246.822 575.601 247.392 575.704 248.138 575.704H252.758V578H247.102ZM239.01 564.896V562.6H250.294V564.896H239.01ZM268.197 578V568.312C268.197 567.211 267.889 566.333 267.273 565.68C266.657 565.008 265.854 564.672 264.865 564.672C263.726 564.672 262.709 565.092 261.813 565.932C260.936 566.753 260.236 568.041 259.713 569.796L259.265 566.66C259.844 565.185 260.674 564.084 261.757 563.356C262.858 562.628 264.053 562.264 265.341 562.264C266.498 562.264 267.497 562.516 268.337 563.02C269.196 563.505 269.858 564.196 270.325 565.092C270.792 565.969 271.025 567.005 271.025 568.2V578H268.197ZM257.221 578V557.392H260.049V578H257.221ZM304.507 578L304.395 574.5V567.92C304.395 566.819 304.031 565.96 303.303 565.344C302.594 564.709 301.614 564.392 300.363 564.392C299.15 564.392 298.16 564.672 297.395 565.232C296.63 565.773 296.21 566.529 296.135 567.5H293.363C293.456 566.399 293.811 565.465 294.427 564.7C295.043 563.916 295.864 563.319 296.891 562.908C297.918 562.479 299.103 562.264 300.447 562.264C301.828 562.264 303.023 562.497 304.031 562.964C305.039 563.412 305.814 564.065 306.355 564.924C306.915 565.783 307.195 566.828 307.195 568.06V578H304.507ZM298.935 578.336C297.927 578.336 297.04 578.159 296.275 577.804C295.51 577.431 294.912 576.908 294.483 576.236C294.054 575.545 293.839 574.743 293.839 573.828C293.839 572.241 294.446 571.009 295.659 570.132C296.891 569.255 298.608 568.816 300.811 568.816H304.759V570.916H300.699C299.43 570.916 298.431 571.159 297.703 571.644C296.994 572.129 296.639 572.811 296.639 573.688C296.639 574.416 296.891 574.985 297.395 575.396C297.918 575.807 298.618 576.012 299.495 576.012C300.615 576.012 301.604 575.713 302.463 575.116C303.34 574.5 304.05 573.66 304.591 572.596L304.899 574.668C304.414 575.844 303.667 576.749 302.659 577.384C301.651 578.019 300.41 578.336 298.935 578.336ZM14.196 611V599.744C14.196 599.072 14.0747 598.549 13.832 598.176C13.608 597.803 13.2533 597.616 12.768 597.616C12.096 597.616 11.4893 598.045 10.948 598.904C10.4253 599.763 10.0613 601.116 9.856 602.964L9.604 600.584C9.66 598.904 10.052 597.597 10.78 596.664C11.5267 595.731 12.4413 595.264 13.524 595.264C14.532 595.264 15.3253 595.637 15.904 596.384C16.5013 597.112 16.8 598.157 16.8 599.52V611H14.196ZM1.4 611V595.6H3.892L4.004 598.596V611H1.4ZM7.812 611V599.744C7.812 599.035 7.68133 598.503 7.42 598.148C7.17733 597.793 6.804 597.616 6.3 597.616C5.59067 597.616 4.984 598.064 4.48 598.96C3.976 599.856 3.62133 601.191 3.416 602.964L3.36 600.5C3.39733 599.399 3.59333 598.456 3.948 597.672C4.30267 596.888 4.76 596.291 5.32 595.88C5.88 595.469 6.47733 595.264 7.112 595.264C8.15733 595.264 8.96 595.647 9.52 596.412C10.0987 597.159 10.388 598.185 10.388 599.492V611H7.812ZM26.0509 611V595.6H28.8789V611H26.0509ZM20.3669 611V608.704H34.1709V611H20.3669ZM22.4109 597.896V595.6H27.4509V597.896H22.4109ZM25.8549 592.968V589.916H29.0189V592.968H25.8549ZM49.6659 611V601.284C49.6659 600.201 49.3579 599.333 48.7419 598.68C48.1259 598.008 47.3232 597.672 46.3339 597.672C45.1952 597.672 44.1779 598.092 43.2819 598.932C42.4045 599.753 41.7045 601.041 41.1819 602.796L40.7339 599.632C41.3125 598.176 42.1432 597.084 43.2259 596.356C44.3272 595.628 45.5219 595.264 46.8099 595.264C47.9672 595.264 48.9659 595.516 49.8059 596.02C50.6645 596.505 51.3272 597.187 51.7939 598.064C52.2605 598.941 52.4939 599.977 52.4939 601.172V611H49.6659ZM38.6899 611V595.6H41.3779L41.5179 599.072V611H38.6899ZM62.4728 611V595.6H65.3008V611H62.4728ZM56.7888 611V608.704H70.5928V611H56.7888ZM58.8328 597.896V595.6H63.8728V597.896H58.8328ZM62.2768 592.968V589.916H65.4408V592.968H62.2768ZM87.0398 611V599.744C87.0398 599.072 86.9184 598.549 86.6758 598.176C86.4518 597.803 86.0971 597.616 85.6118 597.616C84.9398 597.616 84.3331 598.045 83.7918 598.904C83.2691 599.763 82.9051 601.116 82.6998 602.964L82.4478 600.584C82.5038 598.904 82.8958 597.597 83.6238 596.664C84.3704 595.731 85.2851 595.264 86.3678 595.264C87.3758 595.264 88.1691 595.637 88.7478 596.384C89.3451 597.112 89.6438 598.157 89.6438 599.52V611H87.0398ZM74.2438 611V595.6H76.7358L76.8478 598.596V611H74.2438ZM80.6558 611V599.744C80.6558 599.035 80.5251 598.503 80.2638 598.148C80.0211 597.793 79.6478 597.616 79.1438 597.616C78.4344 597.616 77.8278 598.064 77.3238 598.96C76.8198 599.856 76.4651 601.191 76.2598 602.964L76.2038 600.5C76.2411 599.399 76.4371 598.456 76.7918 597.672C77.1464 596.888 77.6038 596.291 78.1638 595.88C78.7238 595.469 79.3211 595.264 79.9558 595.264C81.0011 595.264 81.8038 595.647 82.3638 596.412C82.9424 597.159 83.2318 598.185 83.2318 599.492V611H80.6558ZM104.187 611L104.075 607.5V600.92C104.075 599.819 103.711 598.96 102.983 598.344C102.273 597.709 101.293 597.392 100.043 597.392C98.8294 597.392 97.84 597.672 97.0747 598.232C96.3094 598.773 95.8894 599.529 95.8147 600.5H93.0427C93.136 599.399 93.4907 598.465 94.1067 597.7C94.7227 596.916 95.544 596.319 96.5707 595.908C97.5974 595.479 98.7827 595.264 100.127 595.264C101.508 595.264 102.703 595.497 103.711 595.964C104.719 596.412 105.493 597.065 106.035 597.924C106.595 598.783 106.875 599.828 106.875 601.06V611H104.187ZM98.6147 611.336C97.6067 611.336 96.72 611.159 95.9547 610.804C95.1894 610.431 94.592 609.908 94.1627 609.236C93.7334 608.545 93.5187 607.743 93.5187 606.828C93.5187 605.241 94.1254 604.009 95.3387 603.132C96.5707 602.255 98.288 601.816 100.491 601.816H104.439V603.916H100.379C99.1094 603.916 98.1107 604.159 97.3827 604.644C96.6734 605.129 96.3187 605.811 96.3187 606.688C96.3187 607.416 96.5707 607.985 97.0747 608.396C97.5974 608.807 98.2974 609.012 99.1747 609.012C100.295 609.012 101.284 608.713 102.143 608.116C103.02 607.5 103.729 606.66 104.271 605.596L104.579 607.668C104.093 608.844 103.347 609.749 102.339 610.384C101.331 611.019 100.089 611.336 98.6147 611.336ZM116.966 611V590.42H119.794V611H116.966ZM111.282 611V608.704H125.506V611H111.282ZM113.326 592.716V590.42H118.366V592.716H113.326ZM135.317 611V595.6H138.145V611H135.317ZM129.633 611V608.704H143.437V611H129.633ZM131.677 597.896V595.6H136.717V597.896H131.677ZM135.121 592.968V589.916H138.285V592.968H135.121ZM155.208 611.336C153.845 611.336 152.641 611.103 151.596 610.636C150.569 610.151 149.776 609.479 149.216 608.62C148.656 607.743 148.366 606.697 148.348 605.484H151.008C151.008 606.623 151.39 607.519 152.156 608.172C152.921 608.825 153.929 609.152 155.18 609.152C156.244 609.152 157.093 608.956 157.728 608.564C158.381 608.153 158.708 607.603 158.708 606.912C158.708 606.371 158.521 605.941 158.148 605.624C157.793 605.288 157.317 605.027 156.72 604.84C156.122 604.653 155.46 604.495 154.732 604.364C154.022 604.215 153.304 604.047 152.576 603.86C151.866 603.655 151.213 603.403 150.616 603.104C150.018 602.787 149.533 602.367 149.16 601.844C148.786 601.321 148.6 600.64 148.6 599.8C148.6 598.923 148.852 598.148 149.356 597.476C149.86 596.785 150.569 596.244 151.484 595.852C152.417 595.46 153.518 595.264 154.788 595.264C156.71 595.264 158.25 595.712 159.408 596.608C160.584 597.485 161.218 598.699 161.312 600.248H158.652C158.596 599.352 158.222 598.661 157.532 598.176C156.86 597.672 155.945 597.42 154.788 597.42C153.705 597.42 152.874 597.635 152.296 598.064C151.736 598.493 151.456 599.035 151.456 599.688C151.456 600.192 151.642 600.593 152.016 600.892C152.389 601.172 152.874 601.396 153.472 601.564C154.069 601.713 154.722 601.853 155.432 601.984C156.16 602.096 156.878 602.245 157.588 602.432C158.316 602.619 158.978 602.88 159.576 603.216C160.173 603.533 160.649 603.972 161.004 604.532C161.377 605.092 161.564 605.82 161.564 606.716C161.564 608.153 160.985 609.283 159.827 610.104C158.67 610.925 157.13 611.336 155.208 611.336ZM174.258 611C173.306 611 172.494 610.813 171.822 610.44C171.15 610.048 170.646 609.497 170.31 608.788C169.974 608.079 169.806 607.248 169.806 606.296V592.688L172.634 591.148V606.296C172.634 606.744 172.7 607.155 172.83 607.528C172.961 607.901 173.213 608.191 173.586 608.396C173.978 608.601 174.548 608.704 175.294 608.704H179.914V611H174.258ZM166.166 597.896V595.6H177.45V597.896H166.166ZM189.949 611V595.6H192.777V611H189.949ZM184.265 611V608.704H198.069V611H184.265ZM186.309 597.896V595.6H191.349V597.896H186.309ZM189.753 592.968V589.916H192.917V592.968H189.753ZM209.868 611.336C208.282 611.336 206.9 611.009 205.724 610.356C204.567 609.684 203.671 608.751 203.036 607.556C202.402 606.343 202.084 604.924 202.084 603.3C202.084 601.639 202.411 600.211 203.064 599.016C203.718 597.803 204.632 596.879 205.808 596.244C206.984 595.591 208.356 595.264 209.924 595.264C211.175 595.264 212.295 595.497 213.284 595.964C214.292 596.412 215.104 597.056 215.72 597.896C216.355 598.736 216.719 599.735 216.812 600.892H213.984C213.835 599.847 213.387 599.044 212.64 598.484C211.912 597.905 211.007 597.616 209.924 597.616C208.916 597.616 208.039 597.849 207.292 598.316C206.546 598.764 205.967 599.408 205.556 600.248C205.146 601.088 204.94 602.105 204.94 603.3C204.94 605.073 205.388 606.464 206.284 607.472C207.199 608.48 208.394 608.984 209.868 608.984C210.54 608.984 211.166 608.853 211.744 608.592C212.323 608.331 212.818 607.957 213.228 607.472C213.639 606.968 213.919 606.389 214.068 605.736H216.924C216.738 606.893 216.308 607.892 215.636 608.732C214.983 609.553 214.152 610.197 213.144 610.664C212.155 611.112 211.063 611.336 209.868 611.336ZM249.986 611V601.284C249.986 600.201 249.678 599.333 249.062 598.68C248.446 598.008 247.644 597.672 246.654 597.672C245.516 597.672 244.498 598.092 243.602 598.932C242.725 599.753 242.025 601.041 241.502 602.796L241.054 599.632C241.633 598.176 242.464 597.084 243.546 596.356C244.648 595.628 245.842 595.264 247.13 595.264C248.288 595.264 249.286 595.516 250.126 596.02C250.985 596.505 251.648 597.187 252.114 598.064C252.581 598.941 252.814 599.977 252.814 601.172V611H249.986ZM239.01 611V595.6H241.698L241.838 599.072V611H239.01ZM264.025 611.336C262.438 611.336 261.066 611.009 259.909 610.356C258.77 609.703 257.893 608.779 257.277 607.584C256.661 606.371 256.353 604.943 256.353 603.3C256.353 601.62 256.661 600.192 257.277 599.016C257.893 597.821 258.77 596.897 259.909 596.244C261.066 595.591 262.448 595.264 264.053 595.264C266.442 595.264 268.318 595.983 269.681 597.42C271.044 598.839 271.725 600.799 271.725 603.3C271.725 604.943 271.417 606.371 270.801 607.584C270.185 608.779 269.298 609.703 268.141 610.356C267.002 611.009 265.63 611.336 264.025 611.336ZM264.053 608.984C265.546 608.984 266.722 608.48 267.581 607.472C268.458 606.445 268.897 605.055 268.897 603.3C268.897 601.527 268.458 600.136 267.581 599.128C266.722 598.12 265.546 597.616 264.053 597.616C262.541 597.616 261.356 598.12 260.497 599.128C259.638 600.136 259.209 601.527 259.209 603.3C259.209 605.055 259.638 606.445 260.497 607.472C261.356 608.48 262.541 608.984 264.053 608.984ZM283.524 611C282.572 611 281.76 610.813 281.088 610.44C280.416 610.048 279.912 609.497 279.576 608.788C279.24 608.079 279.072 607.248 279.072 606.296V592.688L281.9 591.148V606.296C281.9 606.744 281.965 607.155 282.096 607.528C282.227 607.901 282.479 608.191 282.852 608.396C283.244 608.601 283.813 608.704 284.56 608.704H289.18V611H283.524ZM275.432 597.896V595.6H286.716V597.896H275.432ZM300.643 611.336C299.056 611.336 297.684 611.019 296.527 610.384C295.37 609.731 294.483 608.807 293.867 607.612C293.251 606.399 292.943 604.952 292.943 603.272C292.943 601.592 293.251 600.155 293.867 598.96C294.502 597.765 295.398 596.851 296.555 596.216C297.731 595.581 299.131 595.264 300.755 595.264C303.238 595.264 305.086 595.955 306.299 597.336C307.512 598.699 308.044 600.575 307.895 602.964H295.183L295.211 600.836L305.011 600.864C304.936 599.875 304.507 599.081 303.723 598.484C302.939 597.887 301.95 597.588 300.755 597.588C299.15 597.588 297.918 598.092 297.059 599.1C296.2 600.108 295.771 601.536 295.771 603.384C295.771 604.485 295.958 605.465 296.331 606.324C296.723 607.164 297.283 607.817 298.011 608.284C298.739 608.751 299.616 608.984 300.643 608.984C301.856 608.984 302.864 608.695 303.667 608.116C304.488 607.537 304.992 606.753 305.179 605.764H308.007C307.764 607.5 306.99 608.863 305.683 609.852C304.376 610.841 302.696 611.336 300.643 611.336ZM10.36 644C9.408 644 8.596 643.813 7.924 643.44C7.252 643.048 6.748 642.497 6.412 641.788C6.076 641.079 5.908 640.248 5.908 639.296V625.688L8.736 624.148V639.296C8.736 639.744 8.80133 640.155 8.932 640.528C9.06267 640.901 9.31467 641.191 9.688 641.396C10.08 641.601 10.6493 641.704 11.396 641.704H16.016V644H10.36ZM2.268 630.896V628.6H13.552V630.896H2.268ZM31.3429 644L31.2309 640.5V633.92C31.2309 632.819 30.8669 631.96 30.1389 631.344C29.4296 630.709 28.4496 630.392 27.1989 630.392C25.9856 630.392 24.9963 630.672 24.2309 631.232C23.4656 631.773 23.0456 632.529 22.9709 633.5H20.1989C20.2923 632.399 20.6469 631.465 21.2629 630.7C21.8789 629.916 22.7003 629.319 23.7269 628.908C24.7536 628.479 25.9389 628.264 27.2829 628.264C28.6643 628.264 29.8589 628.497 30.8669 628.964C31.8749 629.412 32.6496 630.065 33.1909 630.924C33.7509 631.783 34.0309 632.828 34.0309 634.06V644H31.3429ZM25.7709 644.336C24.7629 644.336 23.8763 644.159 23.1109 643.804C22.3456 643.431 21.7483 642.908 21.3189 642.236C20.8896 641.545 20.6749 640.743 20.6749 639.828C20.6749 638.241 21.2816 637.009 22.4949 636.132C23.7269 635.255 25.4443 634.816 27.6469 634.816H31.5949V636.916H27.5349C26.2656 636.916 25.2669 637.159 24.5389 637.644C23.8296 638.129 23.4749 638.811 23.4749 639.688C23.4749 640.416 23.7269 640.985 24.2309 641.396C24.7536 641.807 25.4536 642.012 26.3309 642.012C27.4509 642.012 28.4403 641.713 29.2989 641.116C30.1763 640.5 30.8856 639.66 31.4269 638.596L31.7349 640.668C31.2496 641.844 30.5029 642.749 29.4949 643.384C28.4869 644.019 27.2456 644.336 25.7709 644.336ZM38.3259 644V623.42H41.1539V631.12L41.0139 635.348L43.9819 632.352L48.1819 628.6H51.9339L41.1539 638.4V644H38.3259ZM48.9379 644L43.5339 634.564L46.0259 633.332L52.2419 644H48.9379ZM62.4728 644V628.6H65.3008V644H62.4728ZM56.7888 644V641.704H70.5928V644H56.7888ZM58.8328 630.896V628.6H63.8728V630.896H58.8328ZM62.2768 625.968V622.916H65.4408V625.968H62.2768ZM86.0878 644V634.284C86.0878 633.201 85.7798 632.333 85.1638 631.68C84.5478 631.008 83.7451 630.672 82.7558 630.672C81.6171 630.672 80.5998 631.092 79.7038 631.932C78.8264 632.753 78.1264 634.041 77.6038 635.796L77.1558 632.632C77.7344 631.176 78.5651 630.084 79.6478 629.356C80.7491 628.628 81.9438 628.264 83.2318 628.264C84.3891 628.264 85.3878 628.516 86.2278 629.02C87.0864 629.505 87.7491 630.187 88.2158 631.064C88.6824 631.941 88.9158 632.977 88.9158 634.172V644H86.0878ZM75.1118 644V628.6H77.7998L77.9398 632.072V644H75.1118ZM104.439 630.812L104.523 628.6H107.183V642.32C107.183 644.597 106.567 646.333 105.335 647.528C104.121 648.723 102.283 649.32 99.8187 649.32C98.456 649.32 97.2707 649.133 96.2627 648.76C95.2734 648.387 94.4894 647.827 93.9107 647.08C93.3507 646.352 93.0334 645.437 92.9587 644.336H95.8987C95.992 645.176 96.3654 645.82 97.0187 646.268C97.6907 646.735 98.6707 646.968 99.9587 646.968C101.415 646.968 102.507 646.595 103.235 645.848C103.981 645.101 104.355 644.037 104.355 642.656V640.612C103.832 641.396 103.132 642.012 102.255 642.46C101.396 642.908 100.435 643.132 99.3707 643.132C98.0454 643.132 96.8694 642.815 95.8427 642.18C94.8347 641.545 94.0414 640.668 93.4627 639.548C92.884 638.409 92.5947 637.131 92.5947 635.712C92.5947 634.181 92.8934 632.865 93.4907 631.764C94.088 630.644 94.9094 629.785 95.9547 629.188C97 628.572 98.1854 628.264 99.5107 628.264C100.575 628.264 101.536 628.497 102.395 628.964C103.253 629.431 103.935 630.047 104.439 630.812ZM99.9867 640.92C100.995 640.92 101.891 640.631 102.675 640.052C103.477 639.455 104.037 638.652 104.355 637.644V633.752C104.037 632.744 103.477 631.951 102.675 631.372C101.891 630.775 100.995 630.476 99.9867 630.476C99.072 630.476 98.2694 630.7 97.5787 631.148C96.9067 631.596 96.3747 632.212 95.9827 632.996C95.6094 633.761 95.4227 634.657 95.4227 635.684C95.4227 636.692 95.6094 637.597 95.9827 638.4C96.3747 639.184 96.9067 639.8 97.5787 640.248C98.2694 640.696 99.072 640.92 99.9867 640.92ZM140.609 644L140.497 640.5V633.92C140.497 632.819 140.133 631.96 139.405 631.344C138.695 630.709 137.715 630.392 136.465 630.392C135.251 630.392 134.262 630.672 133.497 631.232C132.731 631.773 132.311 632.529 132.237 633.5H129.465C129.558 632.399 129.913 631.465 130.529 630.7C131.145 629.916 131.966 629.319 132.993 628.908C134.019 628.479 135.205 628.264 136.549 628.264C137.93 628.264 139.125 628.497 140.133 628.964C141.141 629.412 141.915 630.065 142.457 630.924C143.017 631.783 143.297 632.828 143.297 634.06V644H140.609ZM135.037 644.336C134.029 644.336 133.142 644.159 132.377 643.804C131.611 643.431 131.014 642.908 130.585 642.236C130.155 641.545 129.941 640.743 129.941 639.828C129.941 638.241 130.547 637.009 131.761 636.132C132.993 635.255 134.71 634.816 136.913 634.816H140.861V636.916H136.801C135.531 636.916 134.533 637.159 133.805 637.644C133.095 638.129 132.741 638.811 132.741 639.688C132.741 640.416 132.993 640.985 133.497 641.396C134.019 641.807 134.719 642.012 135.597 642.012C136.717 642.012 137.706 641.713 138.565 641.116C139.442 640.5 140.151 639.66 140.693 638.596L141.001 640.668C140.515 641.844 139.769 642.749 138.761 643.384C137.753 644.019 136.511 644.336 135.037 644.336ZM155.684 628.264C157.065 628.264 158.269 628.609 159.296 629.3C160.341 629.972 161.162 630.915 161.76 632.128C162.357 633.341 162.656 634.732 162.656 636.3C162.656 637.849 162.357 639.231 161.76 640.444C161.162 641.657 160.341 642.609 159.296 643.3C158.269 643.991 157.065 644.336 155.684 644.336C154.638 644.336 153.677 644.121 152.8 643.692C151.941 643.263 151.232 642.675 150.672 641.928V648.984H147.844V628.6H150.532L150.616 630.7C151.176 629.953 151.894 629.365 152.772 628.936C153.649 628.488 154.62 628.264 155.684 628.264ZM155.068 641.956C156.02 641.956 156.85 641.713 157.56 641.228C158.269 640.743 158.82 640.08 159.212 639.24C159.604 638.381 159.8 637.401 159.8 636.3C159.8 635.18 159.604 634.2 159.212 633.36C158.82 632.501 158.269 631.839 157.56 631.372C156.85 630.887 156.02 630.644 155.068 630.644C154.097 630.644 153.21 630.924 152.408 631.484C151.624 632.025 151.045 632.772 150.672 633.724V638.82C151.045 639.791 151.624 640.556 152.408 641.116C153.21 641.676 154.097 641.956 155.068 641.956ZM173.894 628.264C175.276 628.264 176.48 628.609 177.506 629.3C178.552 629.972 179.373 630.915 179.97 632.128C180.568 633.341 180.866 634.732 180.866 636.3C180.866 637.849 180.568 639.231 179.97 640.444C179.373 641.657 178.552 642.609 177.506 643.3C176.48 643.991 175.276 644.336 173.894 644.336C172.849 644.336 171.888 644.121 171.01 643.692C170.152 643.263 169.442 642.675 168.882 641.928V648.984H166.054V628.6H168.742L168.826 630.7C169.386 629.953 170.105 629.365 170.982 628.936C171.86 628.488 172.83 628.264 173.894 628.264ZM173.278 641.956C174.23 641.956 175.061 641.713 175.77 641.228C176.48 640.743 177.03 640.08 177.422 639.24C177.814 638.381 178.01 637.401 178.01 636.3C178.01 635.18 177.814 634.2 177.422 633.36C177.03 632.501 176.48 631.839 175.77 631.372C175.061 630.887 174.23 630.644 173.278 630.644C172.308 630.644 171.421 630.924 170.618 631.484C169.834 632.025 169.256 632.772 168.882 633.724V638.82C169.256 639.791 169.834 640.556 170.618 641.116C171.421 641.676 172.308 641.956 173.278 641.956ZM189.809 644V623.42H192.637V644H189.809ZM184.125 644V641.704H198.349V644H184.125ZM186.169 625.716V623.42H191.209V625.716H186.169ZM208.16 644V628.6H210.988V644H208.16ZM202.476 644V641.704H216.28V644H202.476ZM204.52 630.896V628.6H209.56V630.896H204.52ZM207.964 625.968V622.916H211.128V625.968H207.964ZM228.079 644.336C226.493 644.336 225.111 644.009 223.935 643.356C222.778 642.684 221.882 641.751 221.247 640.556C220.613 639.343 220.295 637.924 220.295 636.3C220.295 634.639 220.622 633.211 221.275 632.016C221.929 630.803 222.843 629.879 224.019 629.244C225.195 628.591 226.567 628.264 228.135 628.264C229.386 628.264 230.506 628.497 231.495 628.964C232.503 629.412 233.315 630.056 233.931 630.896C234.566 631.736 234.93 632.735 235.023 633.892H232.195C232.046 632.847 231.598 632.044 230.851 631.484C230.123 630.905 229.218 630.616 228.135 630.616C227.127 630.616 226.25 630.849 225.503 631.316C224.757 631.764 224.178 632.408 223.767 633.248C223.357 634.088 223.151 635.105 223.151 636.3C223.151 638.073 223.599 639.464 224.495 640.472C225.41 641.48 226.605 641.984 228.079 641.984C228.751 641.984 229.377 641.853 229.955 641.592C230.534 641.331 231.029 640.957 231.439 640.472C231.85 639.968 232.13 639.389 232.279 638.736H235.135C234.949 639.893 234.519 640.892 233.847 641.732C233.194 642.553 232.363 643.197 231.355 643.664C230.366 644.112 229.274 644.336 228.079 644.336ZM249.874 644L249.762 640.5V633.92C249.762 632.819 249.398 631.96 248.67 631.344C247.961 630.709 246.981 630.392 245.73 630.392C244.517 630.392 243.528 630.672 242.762 631.232C241.997 631.773 241.577 632.529 241.502 633.5H238.73C238.824 632.399 239.178 631.465 239.794 630.7C240.41 629.916 241.232 629.319 242.258 628.908C243.285 628.479 244.47 628.264 245.814 628.264C247.196 628.264 248.39 628.497 249.398 628.964C250.406 629.412 251.181 630.065 251.722 630.924C252.282 631.783 252.562 632.828 252.562 634.06V644H249.874ZM244.302 644.336C243.294 644.336 242.408 644.159 241.642 643.804C240.877 643.431 240.28 642.908 239.85 642.236C239.421 641.545 239.206 640.743 239.206 639.828C239.206 638.241 239.813 637.009 241.026 636.132C242.258 635.255 243.976 634.816 246.178 634.816H250.126V636.916H246.066C244.797 636.916 243.798 637.159 243.07 637.644C242.361 638.129 242.006 638.811 242.006 639.688C242.006 640.416 242.258 640.985 242.762 641.396C243.285 641.807 243.985 642.012 244.862 642.012C245.982 642.012 246.972 641.713 247.83 641.116C248.708 640.5 249.417 639.66 249.958 638.596L250.266 640.668C249.781 641.844 249.034 642.749 248.026 643.384C247.018 644.019 245.777 644.336 244.302 644.336ZM265.313 644C264.361 644 263.549 643.813 262.877 643.44C262.205 643.048 261.701 642.497 261.365 641.788C261.029 641.079 260.861 640.248 260.861 639.296V625.688L263.689 624.148V639.296C263.689 639.744 263.754 640.155 263.885 640.528C264.016 640.901 264.268 641.191 264.641 641.396C265.033 641.601 265.602 641.704 266.349 641.704H270.969V644H265.313ZM257.221 630.896V628.6H268.505V630.896H257.221ZM281.004 644V628.6H283.832V644H281.004ZM275.32 644V641.704H289.124V644H275.32ZM277.364 630.896V628.6H282.404V630.896H277.364ZM280.808 625.968V622.916H283.972V625.968H280.808ZM300.447 644.336C298.86 644.336 297.488 644.009 296.331 643.356C295.192 642.703 294.315 641.779 293.699 640.584C293.083 639.371 292.775 637.943 292.775 636.3C292.775 634.62 293.083 633.192 293.699 632.016C294.315 630.821 295.192 629.897 296.331 629.244C297.488 628.591 298.87 628.264 300.475 628.264C302.864 628.264 304.74 628.983 306.103 630.42C307.466 631.839 308.147 633.799 308.147 636.3C308.147 637.943 307.839 639.371 307.223 640.584C306.607 641.779 305.72 642.703 304.563 643.356C303.424 644.009 302.052 644.336 300.447 644.336ZM300.475 641.984C301.968 641.984 303.144 641.48 304.003 640.472C304.88 639.445 305.319 638.055 305.319 636.3C305.319 634.527 304.88 633.136 304.003 632.128C303.144 631.12 301.968 630.616 300.475 630.616C298.963 630.616 297.778 631.12 296.919 632.128C296.06 633.136 295.631 634.527 295.631 636.3C295.631 638.055 296.06 639.445 296.919 640.472C297.778 641.48 298.963 641.984 300.475 641.984ZM322.83 644V634.284C322.83 633.201 322.522 632.333 321.906 631.68C321.29 631.008 320.487 630.672 319.498 630.672C318.359 630.672 317.342 631.092 316.446 631.932C315.569 632.753 314.869 634.041 314.346 635.796L313.898 632.632C314.477 631.176 315.307 630.084 316.39 629.356C317.491 628.628 318.686 628.264 319.974 628.264C321.131 628.264 322.13 628.516 322.97 629.02C323.829 629.505 324.491 630.187 324.958 631.064C325.425 631.941 325.658 632.977 325.658 634.172V644H322.83ZM311.854 644V628.6H314.542L314.682 632.072V644H311.854Z" fill="white"/>
<path d="M46.402 159.4L5.48189 128.571L13.6086 117.785L53.8848 127.267L39.3145 117.209L23.1927 105.063L29.2877 96.9727L70.2078 127.801L62.0812 138.588L22.1856 129.576L36.3752 139.164L52.497 151.31L46.402 159.4Z" fill="black"/>
<path d="M90.1936 110.974C86.9544 113.812 83.5927 115.618 80.1085 116.393C76.6611 117.136 73.2798 116.878 69.9648 115.618C66.6543 114.29 63.5481 111.969 60.6463 108.657C57.7444 105.344 55.869 101.978 55.0202 98.5577C54.1759 95.0689 54.3489 91.6647 55.5394 88.3451C56.7666 84.9933 58.9998 81.8987 62.2389 79.0613C67.0977 74.8052 72.1303 72.9013 77.3368 73.3496C82.5802 73.7656 87.3782 76.4582 91.731 81.4274C94.6329 84.7401 96.506 88.1409 97.3503 91.6297C98.1992 95.0495 98.0284 98.4192 96.8379 101.739C95.6475 105.058 93.4327 108.137 90.1936 110.974ZM84.7768 104.79C87.2429 102.63 88.4177 100.072 88.301 97.1172C88.1888 94.0929 86.8108 91.0716 84.1669 88.0533C81.4907 84.9982 78.6772 83.2344 75.7262 82.7619C72.8121 82.2571 70.1219 83.0848 67.6558 85.2451C65.1528 87.4376 63.9412 90.0276 64.0211 93.0151C64.1378 95.9703 65.5343 98.9755 68.2104 102.031C70.8543 105.049 73.6495 106.829 76.5959 107.37C79.5468 107.843 82.2738 106.983 84.7768 104.79Z" fill="black"/>
<path d="M129.97 82.4504C127.669 83.7501 125.356 84.3821 123.032 84.3464C120.75 84.2867 118.623 83.6055 116.651 82.3031C114.721 80.9765 113.094 79.1416 111.771 76.7983L95.0908 47.2733L101.563 38.1371L120.59 71.8161C121.191 72.8812 121.858 73.713 122.589 74.3114C123.297 74.8672 124.206 75.084 125.318 74.962C126.429 74.84 127.773 74.3338 129.349 73.4432L138.871 68.0638L142.879 75.1575L129.97 82.4504ZM95.1871 64.7539L91.1796 57.6603L116.806 43.1828L120.814 50.2765L95.1871 64.7539Z" fill="black"/>
<path d="M169.782 66.7473C165.633 68.0708 161.806 68.3926 158.302 67.7126C154.845 67.0178 151.817 65.4155 149.219 62.9057C146.667 60.3811 144.729 57.0442 143.406 52.8951C142.053 48.6528 141.693 44.787 142.326 41.2978C142.991 37.7471 144.586 34.6959 147.111 32.1443C149.621 29.546 153.02 27.5629 157.309 26.1948C163.975 24.0683 169.419 24.3865 173.638 27.1495C177.905 29.8975 180.846 34.6093 182.462 41.2846L151.343 51.2107L149.202 44.4975L170.53 37.6943C169.704 35.7492 168.282 34.4308 166.264 33.7391C164.277 32.986 162.072 32.9961 159.648 33.7694C156.058 34.9144 153.735 36.8883 152.677 39.6911C151.666 42.479 151.837 45.9942 153.19 50.2365C153.904 52.4742 154.947 54.3757 156.319 55.9411C157.692 57.5064 159.295 58.5873 161.129 59.1837C163.009 59.7652 165.068 59.6991 167.306 58.9853C169.73 58.212 171.588 56.9517 172.88 55.2042C174.218 53.4419 174.769 51.5456 174.532 49.5152L184.112 46.4594C184.997 51.0051 184.171 55.0954 181.632 58.7301C179.093 62.3648 175.143 65.0372 169.782 66.7473Z" fill="black"/>
<path d="M207.017 15.8971C209.499 15.6375 211.838 15.885 214.032 16.6395C216.27 17.3402 218.179 18.4198 219.758 19.8783L217.896 2.06579L227.824 1.02749L233.458 54.9029L223.895 55.903L223.195 51.3268C221.957 53.1291 220.32 54.6532 218.286 55.8992C216.295 57.0914 214.01 57.8224 211.43 58.0922C207.926 58.4586 204.715 57.8597 201.796 56.2953C198.872 54.6823 196.466 52.3755 194.578 49.375C192.684 46.3258 191.532 42.8301 191.119 38.888C190.702 34.8972 191.107 31.2387 192.333 27.9124C193.555 24.5375 195.431 21.7828 197.963 19.6484C200.495 17.514 203.513 16.2636 207.017 15.8971ZM213.042 49.5104C215.281 49.2763 217.183 48.4131 218.749 46.9209C220.358 45.375 221.435 43.442 221.98 41.1218L220.842 30.2445C219.825 28.0386 218.373 26.3945 216.489 25.3124C214.648 24.1765 212.609 23.7256 210.37 23.9597C208.326 24.1735 206.559 24.924 205.07 26.2114C203.576 27.45 202.493 29.0885 201.82 31.1269C201.143 33.1165 200.934 35.3524 201.194 37.8344C201.448 40.2678 202.115 42.4121 203.195 44.2672C204.269 46.0736 205.668 47.4525 207.391 48.4039C209.114 49.3553 210.998 49.7242 213.042 49.5104Z" fill="black"/>
<path d="M257.359 41.4907L257.872 14.1811L258.716 5.48739L270.478 6.62966L269.634 15.3234L264.883 42.2215L257.359 41.4907ZM253.691 56.4736L254.798 45.0768L266.56 46.2191L265.453 57.6159L253.691 56.4736Z" fill="black"/>
</svg>
